<svg width="32" height="32" viewBox="0 0 32 32" fill="none" xmlns="http://www.w3.org/2000/svg">
<circle cx="16" cy="16" r="16" fill="#0066B2"/>
<path d="M15.9467 4.58643C9.67908 4.58643 4.58667 9.67884 4.58667 15.9464C4.58667 22.214 9.67908 27.3064 15.9467 27.3064C22.2143 27.3064 27.3067 22.214 27.3067 15.9464C27.3067 9.67884 22.2143 4.58643 15.9467 4.58643Z" fill="#0066B2"/>
<path d="M15.9466 5.17383C9.99239 5.17383 5.13501 9.99203 5.13501 15.9462C5.13501 21.9004 9.95322 26.7187 15.9466 26.7187C21.94 26.7187 26.719 21.9004 26.719 15.9462C26.719 9.99203 21.9008 5.17383 15.9466 5.17383Z" fill="white"/>
<path d="M15.9465 5.68311C10.2665 5.68311 5.68335 10.3054 5.68335 15.9463C5.68335 21.5871 10.3057 26.2094 15.9465 26.2094C21.5873 26.2094 26.2097 21.5871 26.2097 15.9463C26.2097 10.3054 21.6265 5.68311 15.9465 5.68311ZM15.9465 22.3706C12.421 22.3706 9.52225 19.511 9.52225 15.9463C9.52225 12.3816 12.3818 9.522 15.9465 9.522C19.5112 9.522 22.3708 12.4208 22.3708 15.9463C22.3708 19.4718 19.5112 22.3706 15.9465 22.3706Z" fill="#DC052D"/>
<path d="M10.3059 17.7091C10.5801 18.5317 11.011 19.3152 11.5986 19.9811V17.3174L10.1101 15.1237C9.99255 15.9463 10.0317 16.8473 10.3059 17.7091ZM13.3614 19.7852V16.7298L11.6378 14.2227V11.9116C11.3244 12.2641 11.0502 12.6167 10.8152 13.0476L11.6378 14.2227V17.2782L13.3614 19.7852V21.2346C13.7923 21.4305 14.2232 21.5872 14.6932 21.7047L13.3614 19.7852ZM15.085 16.2205L16.8086 18.7276V21.783L15.085 19.276V16.2205L13.3614 13.7135V10.6581L15.085 13.1651V16.2205ZM16.8086 15.6721L15.085 13.1651V10.1096L16.8086 12.6167V15.6721L18.5321 18.1792V21.2346L16.8086 18.7276V15.6721ZM14.184 10.3055C13.3222 10.5797 12.5388 11.0106 11.912 11.6374L13.3222 13.7135V16.769L15.0458 19.276V21.783C16.8086 22.0572 18.6497 21.5088 19.9423 20.2553L18.5321 18.1792V15.1237L16.8086 12.6167V10.1096C15.9468 9.95296 15.0458 10.0313 14.184 10.3055ZM20.2949 17.6699V14.6145L18.5713 12.1074V10.6581C18.1404 10.4622 17.7095 10.3055 17.2394 10.188L18.5321 12.1074V15.1629L20.2949 17.6699V19.9811C20.6083 19.6285 20.8825 19.276 21.1175 18.8451L20.2949 17.6699ZM21.5876 14.1836C21.3134 13.361 20.8825 12.5775 20.2949 11.9116V14.5753L21.7835 16.769C21.9401 15.9463 21.8618 15.0454 21.5876 14.1836Z" fill="#0066B2"/>
<path d="M9.09158 18.0615L9.36579 18.6883L8.89572 19.5892C8.81737 19.7068 8.7782 19.8243 8.7782 19.8243C8.7782 19.8243 8.89572 19.8243 9.05241 19.8635L10.0709 19.9418L10.4234 20.5294L8.22979 21.8221L7.87723 21.2737L8.7782 20.7252C8.97406 20.6077 9.16992 20.5294 9.16992 20.5294C9.16992 20.5294 9.05241 20.5294 8.81737 20.4902L7.87723 20.3335L8.26896 19.4717C8.3473 19.2759 8.42565 19.1584 8.42565 19.1584C8.42565 19.1584 8.26896 19.2367 8.03392 19.3542L7.09379 19.8243L6.81958 19.2367L9.09158 18.0615Z" fill="white"/>
<path d="M10.7367 20.8428L11.2459 21.2737L10.2274 22.488C10.0708 22.6839 10.0708 22.8797 10.3058 23.0756C10.5408 23.2715 10.7759 23.2323 10.9325 23.0364L11.8727 21.7829L12.4211 22.1746L11.481 23.4673C11.0501 24.0549 10.4625 23.9374 9.99241 23.5457C9.48317 23.1539 9.24813 22.6447 9.7182 22.0571L10.7367 20.8428ZM11.7552 21.6262L11.1284 22.0571L11.4026 21.352L11.7552 21.6262Z" fill="white"/>
<path d="M12.8129 22.3706L13.4788 22.6056L13.8313 23.8592C13.9097 24.1334 13.9489 24.2901 13.9489 24.2901C13.9489 24.2901 13.988 24.0942 14.0664 23.8592L14.3406 22.8407L14.9673 22.9974L14.3014 25.4261L13.6355 25.2694L13.2046 23.9375C13.1262 23.6633 13.0871 23.5066 13.0871 23.5066C13.0871 23.5066 13.0479 23.7025 12.9695 23.9375L12.617 24.956L11.9902 24.7209L12.8129 22.3706Z" fill="white"/>
<path d="M17.7485 24.5643C17.7485 25.1519 17.396 25.5828 16.6517 25.622C15.9858 25.6612 15.359 25.3478 15.3198 24.3685C15.2807 23.3892 15.8291 22.9974 16.4558 22.9583C17.161 22.9191 17.5527 23.3108 17.631 23.8201L16.9651 23.8592C16.8867 23.6242 16.7692 23.5067 16.495 23.5067C16.2208 23.5067 16.025 23.7809 16.025 24.2901C16.0641 24.8385 16.26 25.0344 16.5734 24.9952C16.8867 24.9561 17.0043 24.8385 17.0434 24.5643H17.7485Z" fill="white"/>
<path d="M17.9053 22.8017L18.532 22.5667L18.8846 23.4285L19.668 23.0759L19.2371 22.2533L19.8247 21.9399L20.9607 24.1728L20.3731 24.4861L19.9422 23.5852L19.1196 23.9769L19.5113 24.917L18.8846 25.1521L17.9053 22.8017Z" fill="white"/>
<path d="M20.2556 21.6263L21.47 20.4512L21.8225 20.8429L21.0782 21.5872L21.3916 21.9006L22.0967 21.1954L22.4884 21.548L21.7442 22.2923L22.0575 22.6448L22.8802 21.8222L23.2719 22.2139L21.94 23.5066L20.2556 21.6263Z" fill="white"/>
<path d="M21.7441 20.0985L22.0967 19.4717L23.4286 19.315C23.7028 19.2759 23.8594 19.2759 23.8594 19.2759C23.8594 19.2759 23.6636 19.1975 23.4677 19.1192L22.5276 18.6883L22.8018 18.0615L25.113 19.1192L24.8388 19.7459L23.4677 19.9418C23.1935 19.981 23.0368 19.981 23.0368 19.981C23.0368 19.981 23.2327 20.0593 23.4286 20.1768L24.3687 20.6861L24.0553 21.2737L21.7441 20.0985Z" fill="white"/>
<path d="M7.2896 11.7158L7.79884 11.9509L7.40712 13.0477L7.87719 13.2044L8.22974 12.1467L8.73898 12.3426L8.38643 13.3611L9.24822 13.6744L9.05236 14.3012L6.66284 13.5178L7.2896 11.7158Z" fill="white"/>
<path d="M10.3842 10.0704C10.8151 10.4621 10.8934 11.0105 10.4625 11.5589C10.0708 12.0682 9.44403 12.3032 8.66059 11.7156C7.87714 11.128 7.99466 10.4621 8.38638 9.91367C8.81728 9.36526 9.40486 9.32608 9.83576 9.60029L9.40486 10.1487C9.209 10.0312 9.01314 10.0312 8.81728 10.3054C8.62141 10.5404 8.66058 10.8538 9.09148 11.1672C9.48321 11.4806 9.83576 11.4806 9.99245 11.2455C10.1883 11.0105 10.1491 10.8146 9.95328 10.6188L10.3842 10.0704Z" fill="white"/>
<path d="M12.0686 7.21117C12.4995 7.01531 12.9696 6.97613 13.1263 7.40703C13.283 7.79876 13.1655 7.95544 12.9696 8.11213C13.1655 8.07296 13.4397 8.07296 13.6355 8.50386C13.8314 9.0131 13.518 9.28731 13.0871 9.48317L12.147 9.91407L11.011 7.64207L12.0686 7.21117ZM12.4212 8.11213C12.5779 8.03379 12.6562 7.95544 12.5779 7.79875C12.4995 7.64207 12.382 7.64207 12.2253 7.72041L11.8336 7.8771L12.0295 8.308L12.4212 8.11213ZM12.8521 9.05227C13.048 8.97393 13.0871 8.89558 13.0088 8.69972C12.9304 8.50386 12.8129 8.50386 12.6171 8.62138L12.3037 8.77807L12.5387 9.24813L12.8521 9.05227Z" fill="white"/>
<path d="M16.6518 8.85627H15.9467L15.7508 8.3862L14.889 8.46454L14.7715 8.93461L14.0664 9.05213L14.7715 6.3884L15.555 6.31006L16.6518 8.85627ZM15.5158 7.91613L15.2808 7.40689C15.2024 7.2502 15.1632 7.09351 15.1632 7.09351C15.1632 7.09351 15.1241 7.2502 15.0849 7.44606L14.9674 7.9553L15.5158 7.91613Z" fill="white"/>
<path d="M17.2785 8.11199L16.6909 6.31006L17.4352 6.46675L17.6702 7.21102C17.7094 7.36771 17.7486 7.5244 17.7486 7.5244C17.7486 7.5244 17.8661 7.40689 17.9444 7.28937L18.4537 6.70178L19.198 6.89764L17.9053 8.26868L17.7094 9.0913L17.0435 8.93461L17.2785 8.11199Z" fill="white"/>
<path d="M19.7463 7.09326L21.3524 7.95505L21.0782 8.42512L20.0989 7.91588L19.903 8.30761L20.804 8.77768L20.5298 9.24774L19.668 8.77768L19.433 9.1694L20.4123 9.71781L20.1381 10.1879L18.6104 9.36526L19.7463 7.09326Z" fill="white"/>
<path d="M22.2533 8.66016L23.0368 9.48278C23.4285 9.91367 23.5069 10.3054 23.0368 10.7363C22.7234 11.0105 22.5276 11.0888 22.2533 10.9713L21.8616 11.9898L21.3916 11.4022L21.7441 10.5796L21.5091 10.3446L20.9215 10.9322L20.4514 10.4621L22.2533 8.66016ZM21.9008 9.95285L22.175 10.2271C22.3317 10.3837 22.4492 10.3837 22.6059 10.2271C22.7626 10.0704 22.7626 9.95285 22.6059 9.79616L22.3317 9.48278L21.9008 9.95285Z" fill="white"/>
<path d="M22.8801 14.3013L22.6451 13.6353L23.3893 12.5385C23.546 12.3035 23.6244 12.186 23.6244 12.186C23.6244 12.186 23.4677 12.2643 23.2327 12.3818L22.2925 12.8127L22.0183 12.2251L24.3295 11.1675L24.6429 11.7942L23.8986 12.9694C23.7419 13.2044 23.6636 13.322 23.6636 13.322C23.6636 13.322 23.8594 13.2436 24.0553 13.1653L25.0738 12.7735L25.2696 13.4003L22.8801 14.3013Z" fill="white"/>
</svg>
