<svg width="32" height="32" viewBox="0 0 32 32" fill="none" xmlns="http://www.w3.org/2000/svg">
<circle cx="16" cy="16" r="16" fill="white"/>
<path d="M19.579 10.4473C19.4747 10.4473 19.3932 10.3658 19.3932 10.2671C19.3932 10.1683 19.4747 10.0869 19.579 10.0869C19.6834 10.0869 19.7648 10.1683 19.7648 10.2671C19.7704 10.3658 19.6834 10.4473 19.579 10.4473ZM8.49072 18.8697C8.49072 14.8446 11.8943 11.5744 16.0533 11.5744C20.2123 11.5744 23.6158 14.8501 23.6158 18.8697C23.6158 22.8831 20.2123 26.1706 16.0533 26.1706C11.8948 26.165 8.49072 22.8831 8.49072 18.8697ZM19.0211 7.72893C19.2013 7.77524 19.3112 7.94988 19.2649 8.12396C19.2186 8.29805 19.0328 8.40294 18.8526 8.35607C18.6723 8.3092 18.5624 8.13512 18.6087 7.96104C18.655 7.78696 18.8408 7.68206 19.0211 7.72893ZM19.3291 7.09007C19.4334 7.09007 19.5149 7.17153 19.5149 7.27029C19.5149 7.36905 19.4334 7.45051 19.3291 7.45051C19.2247 7.45051 19.1433 7.36905 19.1433 7.27029C19.1377 7.16595 19.2247 7.09007 19.3291 7.09007ZM19.1723 6.43949C19.2766 6.43949 19.3581 6.52095 19.3581 6.61971C19.3581 6.71847 19.2766 6.79993 19.1723 6.79993C19.0679 6.79993 18.9865 6.71847 18.9865 6.61971C18.9809 6.52095 19.0679 6.43949 19.1723 6.43949ZM21.4956 8.1474C21.5999 8.1474 21.6814 8.22886 21.6814 8.32762C21.6814 8.42638 21.5999 8.50784 21.4956 8.50784C21.3913 8.50784 21.3098 8.42638 21.3098 8.32762C21.3098 8.22886 21.3913 8.1474 21.4956 8.1474ZM21.3388 7.50296C21.4432 7.50296 21.5246 7.58442 21.5246 7.68318C21.5246 7.78193 21.4432 7.8634 21.3388 7.8634C21.2345 7.8634 21.153 7.78193 21.153 7.68318C21.153 7.58442 21.2345 7.50296 21.3388 7.50296ZM21.0598 6.93384C21.1642 6.93384 21.2456 7.0153 21.2456 7.11406C21.2456 7.21282 21.1586 7.29428 21.0598 7.29428C20.9555 7.29428 20.874 7.21282 20.874 7.11406C20.8685 7.0153 20.9555 6.93384 21.0598 6.93384ZM20.6124 6.42833C20.7167 6.42833 20.7982 6.50979 20.7982 6.60855C20.7982 6.70731 20.7167 6.78877 20.6124 6.78877C20.508 6.78877 20.4266 6.70731 20.4266 6.60855C20.4266 6.50979 20.508 6.42833 20.6124 6.42833ZM20.0661 6.04501C20.1705 6.04501 20.2519 6.12647 20.2519 6.22523C20.2519 6.32399 20.1705 6.40545 20.0661 6.40545C19.9618 6.40545 19.8803 6.32399 19.8803 6.22523C19.8803 6.12647 19.9618 6.04501 20.0661 6.04501ZM19.4736 5.81848C19.5779 5.81848 19.6594 5.89994 19.6594 5.9987C19.6594 6.09746 19.5779 6.17892 19.4736 6.17892C19.3692 6.17892 19.2878 6.09746 19.2878 5.9987C19.2878 5.89994 19.3748 5.81848 19.4736 5.81848ZM18.8754 5.87093C18.9798 5.87093 19.0612 5.95239 19.0612 6.05115C19.0612 6.14991 18.9798 6.23137 18.8754 6.23137C18.7711 6.23137 18.6896 6.14991 18.6896 6.05115C18.6896 5.95239 18.7711 5.87093 18.8754 5.87093ZM18.4341 5.37714C18.5384 5.37714 18.6199 5.4586 18.6199 5.55736C18.6199 5.65612 18.5329 5.73758 18.4341 5.73758C18.3298 5.73758 18.2483 5.65612 18.2483 5.55736C18.2483 5.4586 18.3298 5.37714 18.4341 5.37714ZM17.8588 5.01112C17.9632 5.01112 18.0446 5.09258 18.0446 5.19134C18.0446 5.29009 17.9632 5.37156 17.8588 5.37156C17.7545 5.37156 17.673 5.29009 17.673 5.19134C17.673 5.09258 17.7545 5.01112 17.8588 5.01112ZM17.2607 4.7963C17.365 4.7963 17.4465 4.87776 17.4465 4.97652C17.4465 5.07528 17.365 5.15674 17.2607 5.15674C17.1564 5.15674 17.0749 5.07528 17.0749 4.97652C17.0749 4.87776 17.1564 4.7963 17.2607 4.7963ZM16.6509 4.69196C16.7552 4.69196 16.8367 4.77343 16.8367 4.87218C16.8367 4.97094 16.7552 5.0524 16.6509 5.0524C16.5465 5.0524 16.4651 4.97094 16.4651 4.87218C16.4595 4.77343 16.5465 4.69196 16.6509 4.69196ZM10.8492 9.46027C10.7709 9.50174 10.6797 9.51161 10.5944 9.48784C10.5091 9.46407 10.4361 9.40847 10.3906 9.3325C10.3691 9.29506 10.3555 9.25362 10.3506 9.21073C10.3457 9.16783 10.3496 9.12439 10.3621 9.08307C10.3745 9.04174 10.3953 9.0034 10.4232 8.9704C10.451 8.9374 10.4853 8.91043 10.5239 8.89116C10.6022 8.84968 10.6934 8.83982 10.7787 8.86359C10.864 8.88736 10.937 8.94296 10.9826 9.01893C11.0696 9.17571 11.0116 9.37323 10.8492 9.46027ZM13.254 8.35663C13.0738 8.40294 12.888 8.2986 12.8417 8.12452C12.7954 7.95044 12.9058 7.77022 13.0855 7.72949C13.2657 7.68318 13.4515 7.78751 13.4978 7.9616C13.5441 8.13568 13.4337 8.3159 13.254 8.35663ZM16.0533 8.01405C16.0098 8.01486 15.9666 8.00708 15.9261 7.99117C15.8856 7.97525 15.8486 7.95151 15.8173 7.9213C15.786 7.89108 15.761 7.85499 15.7436 7.81509C15.7263 7.77519 15.717 7.73226 15.7163 7.68876C15.7163 7.50854 15.8675 7.36347 16.0533 7.36347C16.2391 7.36347 16.3903 7.50854 16.3903 7.68876C16.3903 7.86898 16.2391 8.01405 16.0533 8.01405ZM12.7831 7.45051C12.6788 7.45051 12.5973 7.36905 12.5973 7.27029C12.5973 7.17153 12.6788 7.09007 12.7831 7.09007C12.8874 7.09007 12.9689 7.17153 12.9689 7.27029C12.9689 7.36905 12.8819 7.45051 12.7831 7.45051ZM12.9399 6.79993C12.8355 6.79993 12.7541 6.71847 12.7541 6.61971C12.7541 6.52095 12.8355 6.43949 12.9399 6.43949C13.0442 6.43949 13.1257 6.52095 13.1257 6.61971C13.1257 6.71847 13.0386 6.79993 12.9399 6.79993ZM10.611 8.51342C10.5066 8.51342 10.4252 8.43196 10.4252 8.3332C10.4252 8.23444 10.5066 8.15298 10.611 8.15298C10.7153 8.15298 10.7968 8.23444 10.7968 8.3332C10.8023 8.43196 10.7153 8.51342 10.611 8.51342ZM10.7677 7.86284C10.6634 7.86284 10.5819 7.78138 10.5819 7.68262C10.5819 7.58386 10.669 7.5024 10.7677 7.5024C10.8721 7.5024 10.9535 7.58386 10.9535 7.68262C10.9591 7.78138 10.8721 7.86284 10.7677 7.86284ZM11.0467 7.29372C10.9424 7.29372 10.8609 7.21226 10.8609 7.1135C10.8609 7.01474 10.9424 6.93328 11.0467 6.93328C11.1511 6.93328 11.2325 7.01474 11.2325 7.1135C11.2381 7.21226 11.1511 7.29372 11.0467 7.29372ZM11.4942 6.78821C11.3899 6.78821 11.3084 6.70675 11.3084 6.60799C11.3084 6.50923 11.3899 6.42777 11.4942 6.42777C11.5985 6.42777 11.68 6.50923 11.68 6.60799C11.68 6.70675 11.5985 6.78821 11.4942 6.78821ZM12.0405 6.40489C11.9361 6.40489 11.8547 6.32343 11.8547 6.22467C11.8547 6.12592 11.9361 6.04445 12.0405 6.04445C12.1448 6.04445 12.2263 6.12592 12.2263 6.22467C12.2318 6.32343 12.1448 6.40489 12.0405 6.40489ZM12.633 6.18394C12.5287 6.18394 12.4472 6.10248 12.4472 6.00372C12.4472 5.90496 12.5287 5.8235 12.633 5.8235C12.7373 5.8235 12.8188 5.90496 12.8188 6.00372C12.8188 6.10248 12.7373 6.18394 12.633 6.18394ZM13.2311 6.23025C13.1268 6.23025 13.0453 6.14879 13.0453 6.05003C13.0453 5.95128 13.1268 5.86981 13.2311 5.86981C13.3355 5.86981 13.4169 5.95128 13.4169 6.05003C13.4225 6.14879 13.3355 6.23025 13.2311 6.23025ZM13.6725 5.7426C13.5681 5.7426 13.4867 5.66114 13.4867 5.56238C13.4867 5.46362 13.5737 5.38216 13.6725 5.38216C13.7768 5.38216 13.8583 5.46362 13.8583 5.56238C13.8583 5.66114 13.7768 5.7426 13.6725 5.7426ZM14.2477 5.371C14.1434 5.371 14.0619 5.28954 14.0619 5.19078C14.0619 5.09202 14.1434 5.01056 14.2477 5.01056C14.3521 5.01056 14.4335 5.09202 14.4335 5.19078C14.4335 5.28954 14.3521 5.371 14.2477 5.371ZM14.8459 5.15619C14.7415 5.15619 14.6601 5.07472 14.6601 4.97596C14.6601 4.87721 14.7471 4.79574 14.8459 4.79574C14.9502 4.79574 15.0317 4.87721 15.0317 4.97596C15.0317 5.07472 14.9502 5.15619 14.8459 5.15619ZM16.0533 6.93328C15.9489 6.93328 15.8675 6.85182 15.8675 6.75306C15.8675 6.6543 15.9545 6.57284 16.0533 6.57284C16.1576 6.57284 16.2391 6.6543 16.2391 6.75306C16.2391 6.85182 16.1576 6.93328 16.0533 6.93328ZM16.0533 6.27712C15.9489 6.27712 15.8675 6.19566 15.8675 6.0969C15.8675 5.99814 15.9545 5.91668 16.0533 5.91668C16.1576 5.91668 16.2391 5.99814 16.2391 6.0969C16.2391 6.19566 16.1576 6.27712 16.0533 6.27712ZM16.0533 5.62096C15.9489 5.62096 15.8675 5.5395 15.8675 5.44074C15.8675 5.34199 15.9545 5.26052 16.0533 5.26052C16.1576 5.26052 16.2391 5.34199 16.2391 5.44074C16.2391 5.5395 16.1576 5.62096 16.0533 5.62096ZM15.4607 5.05185C15.3564 5.05185 15.2688 4.97039 15.2688 4.87163C15.2688 4.77287 15.3558 4.69141 15.4607 4.69141C15.5656 4.69141 15.6465 4.77287 15.6465 4.87163C15.6465 4.97596 15.5595 5.05185 15.4607 5.05185ZM21.5827 8.8906C21.745 8.97764 21.8036 9.17516 21.716 9.33194C21.6284 9.48873 21.4197 9.54676 21.2574 9.45971C21.2193 9.43984 21.1856 9.41257 21.1582 9.37949C21.1308 9.34641 21.1103 9.3082 21.0979 9.26709C21.0854 9.22598 21.0814 9.1828 21.0858 9.14009C21.0903 9.09738 21.1033 9.056 21.124 9.01837C21.1696 8.9424 21.2425 8.8868 21.3279 8.86303C21.4132 8.83926 21.5044 8.84913 21.5827 8.8906ZM17.2557 9.84303C17.1513 9.84303 17.0699 9.76157 17.0699 9.66281C17.0699 9.56405 17.1513 9.48259 17.2557 9.48259C17.36 9.48259 17.4415 9.56405 17.4415 9.66281C17.4471 9.76157 17.36 9.84303 17.2557 9.84303ZM12.5275 10.4473C12.4232 10.4473 12.3417 10.3658 12.3417 10.2671C12.3417 10.1683 12.4288 10.0869 12.5275 10.0869C12.6319 10.0869 12.7133 10.1683 12.7133 10.2671C12.7133 10.3658 12.6319 10.4473 12.5275 10.4473ZM14.8509 9.84303C14.7465 9.84303 14.6651 9.76157 14.6651 9.66281C14.6651 9.56405 14.7521 9.48259 14.8509 9.48259C14.9552 9.48259 15.0367 9.56405 15.0367 9.66281C15.0367 9.76157 14.9552 9.84303 14.8509 9.84303Z" fill="white"/>
<path d="M17.4471 8.53603C17.4996 8.64651 17.5576 8.72797 17.6329 8.79715L17.1163 8.73299C17.2132 8.68132 17.2983 8.61007 17.3662 8.52376C17.3928 8.53079 17.4202 8.53472 17.4477 8.53547L17.4471 8.53603ZM14.659 8.53603C14.6883 8.53515 14.7175 8.53122 14.746 8.52431C14.8102 8.61135 14.8973 8.6811 14.9899 8.73355L14.4732 8.79771C14.5547 8.72239 14.6183 8.63535 14.659 8.53659V8.53603ZM13.6541 8.94836L13.2011 9.05884C13.2825 8.96008 13.3344 8.83789 13.3461 8.71011C13.4269 8.81443 13.5329 8.89643 13.6541 8.94836ZM11.9289 9.4946C11.9723 9.4241 12.0056 9.34784 12.0277 9.26807L12.0511 9.26249C12.0945 9.25212 12.1359 9.23438 12.1733 9.21004C12.2449 9.25645 12.3232 9.29164 12.4054 9.31438L11.9289 9.4946ZM16.0533 8.37924C16.0997 8.50144 16.1867 8.60578 16.2916 8.68724C16.2101 8.68724 16.1348 8.68166 16.0533 8.68166L15.8151 8.68724C15.9256 8.60578 16.007 8.50144 16.0533 8.37924ZM19.9334 9.20391C19.968 9.22734 20.0148 9.24464 20.0556 9.25635L20.079 9.26193C20.0963 9.3434 20.1315 9.41872 20.1778 9.48846L19.6957 9.30266C19.7808 9.2855 19.8617 9.25195 19.9339 9.20391H19.9334ZM18.9051 9.05884L18.452 8.94836C18.5724 8.89779 18.6767 8.81544 18.7539 8.71011C18.771 8.83811 18.8234 8.95884 18.9051 9.05884ZM19.4915 7.64162C19.6193 7.58918 19.7124 7.47926 19.7414 7.34535C19.9445 7.39166 20.1711 7.44411 20.3569 7.51943C20.5067 7.57521 20.6461 7.65575 20.7692 7.75768C20.868 8.00764 20.926 8.29778 20.9611 8.65209C20.8389 8.70453 20.758 8.82617 20.7112 8.94836C20.6359 9.13416 20.6359 9.3261 20.8445 9.47117C20.7981 9.47477 20.7514 9.46846 20.7076 9.45268C20.6637 9.4369 20.6238 9.41199 20.5903 9.37961C20.5568 9.34723 20.5306 9.30811 20.5133 9.26484C20.4961 9.22156 20.4882 9.17512 20.4902 9.12858C20.5302 9.08322 20.5599 9.02973 20.5773 8.9718C20.6353 8.75084 20.5019 8.53045 20.2754 8.478C20.0489 8.41998 19.8223 8.55333 19.7643 8.76814C19.7587 8.79157 19.7526 8.81445 19.7526 8.83789C19.5607 9.06442 19.1774 8.94836 19.1601 8.65209C19.5144 8.72183 19.6656 8.54775 19.7236 8.31508C19.776 8.12314 19.7526 7.92618 19.5261 7.80957C19.5144 7.7454 19.5088 7.68738 19.4915 7.64107V7.64162ZM13.5035 6.8404C14.1775 6.48051 15.054 6.41635 15.7336 6.51511V6.56142C15.6843 6.63531 15.6653 6.72533 15.6804 6.81286C15.6956 6.9004 15.7438 6.97876 15.8151 7.03178C15.6873 7.07251 15.5886 7.16513 15.554 7.32805C15.2984 7.38608 15.2287 7.57188 15.2287 7.7694C15.2287 8.00764 15.3274 8.21074 15.6873 8.22804C15.6466 8.36139 15.5188 8.45457 15.3676 8.45457C15.2988 8.45513 15.2316 8.43412 15.1753 8.39448C15.1191 8.35485 15.0767 8.2986 15.054 8.23362C15.0658 8.19902 15.0658 8.16387 15.0658 8.12928C15.0658 7.90275 14.8738 7.72253 14.6417 7.72253C14.4096 7.72253 14.2177 7.90275 14.2177 8.12928C14.2163 8.19697 14.2345 8.26362 14.2701 8.32122C14.2649 8.39061 14.2379 8.4566 14.1931 8.50979C14.1482 8.56298 14.0877 8.60067 14.0201 8.61749C13.9516 8.63508 13.8793 8.63052 13.8136 8.60445C13.7478 8.57839 13.692 8.53217 13.6541 8.47242C13.9967 8.36809 14.043 8.14713 13.9794 7.91502C13.927 7.72309 13.8109 7.56072 13.5498 7.5663C13.5116 7.48444 13.4458 7.41865 13.364 7.3805C13.3986 7.1947 13.4393 7.0089 13.5035 6.8404ZM16.3669 6.50953C17.0465 6.41077 17.9292 6.47493 18.5971 6.83482C18.6626 7.0111 18.7073 7.19442 18.7304 7.38106C18.6486 7.41929 18.5829 7.48505 18.5446 7.56686C18.2835 7.56128 18.1669 7.72364 18.1206 7.91558C18.0564 8.14769 18.1033 8.36864 18.4459 8.47298C18.3705 8.58904 18.2249 8.6532 18.0798 8.61805C18.012 8.60178 17.9512 8.56425 17.9062 8.51095C17.8613 8.45765 17.8345 8.39136 17.8299 8.32177C17.8646 8.26382 17.8828 8.19742 17.8823 8.12984C17.8823 7.90331 17.6965 7.72309 17.4583 7.72309C17.2262 7.72309 17.0342 7.90331 17.0342 8.12984C17.0351 8.16489 17.039 8.1998 17.0459 8.23418C17.0226 8.2987 16.98 8.3545 16.9239 8.39402C16.8679 8.43354 16.801 8.45487 16.7324 8.45513C16.662 8.45574 16.5933 8.43418 16.5359 8.39352C16.4785 8.35286 16.4354 8.29515 16.4127 8.2286C16.7725 8.2113 16.8713 8.00764 16.8713 7.76995C16.8713 7.56686 16.8016 7.38664 16.546 7.32861C16.5317 7.26092 16.5001 7.19808 16.4544 7.14617C16.4086 7.09426 16.3502 7.05505 16.2849 7.03233C16.3664 6.96817 16.4244 6.86383 16.4244 6.75335C16.4244 6.68361 16.401 6.61387 16.3664 6.56142L16.3669 6.50953ZM11.7554 7.51999C11.9412 7.45024 12.1677 7.39222 12.3708 7.34591C12.3998 7.47926 12.493 7.58973 12.6208 7.64218C12.6009 7.69385 12.5929 7.74935 12.5974 7.80455C12.3652 7.9206 12.3474 8.11812 12.3998 8.31006C12.464 8.54217 12.6091 8.71681 12.9634 8.64706C12.9517 8.94334 12.5628 9.05939 12.3708 8.83286C12.3708 8.80943 12.3652 8.78655 12.3591 8.76312C12.3011 8.54217 12.069 8.4144 11.8424 8.47298C11.6159 8.53157 11.4826 8.75196 11.5406 8.96677C11.5579 9.0248 11.5869 9.08283 11.6276 9.12356C11.6332 9.24575 11.5696 9.36181 11.4535 9.42542C11.3974 9.45262 11.3357 9.46655 11.2733 9.46615C11.4826 9.32666 11.4825 9.13528 11.4067 8.94334C11.3542 8.82728 11.2789 8.70509 11.1511 8.6532C11.1801 8.2989 11.2382 8.00876 11.3369 7.75879C11.4413 7.67733 11.5752 7.58471 11.7554 7.52055V7.51999ZM16.6576 9.5995L16.0533 9.81431L15.4552 9.5995L16.0533 9.38413L16.6576 9.5995ZM12.1326 10.389L12.0801 10.5921L12.0628 10.6674L12.0221 10.644L11.819 10.5335L11.8714 10.3416L11.8832 10.3009L11.9529 10.3243L12.1326 10.389ZM19.9736 10.389L20.2235 10.2958L20.2352 10.3366L20.2877 10.5341L20.0902 10.6384L20.0494 10.6618L20.0321 10.5865L19.9736 10.389Z" fill="#E62644"/>
<path d="M18.9051 9.05866C18.8236 8.95991 18.7717 8.83771 18.76 8.70994C18.6847 8.81428 18.5742 8.89574 18.4582 8.94819L18.9057 9.05866H18.9051ZM19.9334 9.20373C19.8637 9.25004 19.7822 9.2852 19.7013 9.30807L20.1834 9.49387C20.1374 9.42473 20.104 9.34805 20.0846 9.26734L20.0612 9.26176C20.0149 9.25004 19.9741 9.22717 19.9334 9.20373ZM16.0534 8.37907C16.0071 8.50127 15.9256 8.6056 15.8151 8.68707L16.0534 8.68149L16.2916 8.68707C16.1856 8.60801 16.1033 8.50152 16.0534 8.37907ZM11.9295 9.49443L12.4116 9.30863C12.3301 9.2852 12.2492 9.2506 12.1795 9.20429C12.1449 9.22773 12.098 9.24502 12.0573 9.25674L12.0338 9.26232C12.0048 9.34378 11.9758 9.42469 11.9295 9.49443ZM13.6547 8.94819C13.5343 8.89762 13.43 8.81526 13.3529 8.70994C13.3356 8.83771 13.2887 8.95991 13.2078 9.05866L13.6553 8.94819H13.6547ZM14.6596 8.53586C14.6189 8.63462 14.5553 8.72166 14.4738 8.79698L14.9905 8.73282C14.8942 8.68266 14.8108 8.61108 14.7466 8.52358C14.7176 8.52916 14.6886 8.5353 14.6596 8.5353V8.53586ZM17.4477 8.53586C17.4202 8.53524 17.3928 8.53131 17.3663 8.52414C17.3021 8.61118 17.215 8.68093 17.1163 8.73338L17.633 8.79754C17.5584 8.728 17.4974 8.64535 17.4527 8.55371L17.4477 8.53586ZM21.5833 8.89016C21.5051 8.84855 21.4138 8.83861 21.3284 8.86239C21.2431 8.88617 21.1701 8.94186 21.1247 9.01793C21.0376 9.17472 21.0956 9.37224 21.258 9.45928C21.3363 9.50075 21.4275 9.51062 21.5128 9.48684C21.5981 9.46307 21.6711 9.40747 21.7166 9.33151C21.7388 9.29423 21.753 9.25275 21.7582 9.2097C21.7635 9.16665 21.7597 9.12298 21.7472 9.08147C21.7346 9.03995 21.7136 9.0015 21.6854 8.96857C21.6572 8.93563 21.6224 8.90893 21.5833 8.89016ZM19.0217 7.72849C18.8415 7.68218 18.6557 7.78652 18.6094 7.9606C18.5631 8.13469 18.6735 8.31491 18.8532 8.35564C19.0334 8.40195 19.2192 8.29761 19.2655 8.12353C19.3118 7.94944 19.2014 7.76922 19.0217 7.72849ZM19.3297 7.08963C19.2254 7.08963 19.1439 7.17109 19.1439 7.26985C19.1439 7.36861 19.2309 7.45007 19.3297 7.45007C19.434 7.45007 19.5155 7.36861 19.5155 7.26985C19.5158 7.24564 19.5111 7.22163 19.5017 7.19929C19.4924 7.17694 19.4787 7.15673 19.4613 7.13987C19.4439 7.12301 19.4233 7.10986 19.4007 7.10123C19.378 7.09259 19.3539 7.08865 19.3297 7.08963ZM19.1729 6.43905C19.0686 6.43905 18.9871 6.52051 18.9871 6.61927C18.9871 6.71803 19.0742 6.79949 19.1729 6.79949C19.2773 6.79949 19.3587 6.71803 19.3587 6.61927C19.3587 6.52051 19.2773 6.43905 19.1729 6.43905ZM21.4963 8.14696C21.3919 8.14696 21.3105 8.22842 21.3105 8.32718C21.3105 8.42594 21.3919 8.5074 21.4963 8.5074C21.6006 8.5074 21.6821 8.42594 21.6821 8.32718C21.6821 8.22842 21.6006 8.14696 21.4963 8.14696ZM21.3395 7.50252C21.2351 7.50252 21.1537 7.58398 21.1537 7.68274C21.1537 7.7815 21.2351 7.86296 21.3395 7.86296C21.4438 7.86296 21.5253 7.7815 21.5253 7.68274C21.5253 7.58398 21.4438 7.50252 21.3395 7.50252ZM21.0605 6.9334C20.9562 6.9334 20.8747 7.01486 20.8747 7.11362C20.8747 7.21238 20.9617 7.29384 21.0605 7.29384C21.1648 7.29384 21.2463 7.21238 21.2463 7.11362C21.2463 7.01486 21.1648 6.9334 21.0605 6.9334ZM20.613 6.42789C20.5087 6.42789 20.4272 6.50935 20.4272 6.60811C20.4272 6.70687 20.5087 6.78833 20.613 6.78833C20.7173 6.78833 20.7988 6.70687 20.7988 6.60811C20.7988 6.50935 20.7173 6.42789 20.613 6.42789ZM20.0668 6.04458C19.9624 6.04458 19.881 6.12604 19.881 6.2248C19.881 6.32355 19.9624 6.40502 20.0668 6.40502C20.1711 6.40502 20.2526 6.32355 20.2526 6.2248C20.2526 6.12604 20.1711 6.04458 20.0668 6.04458ZM19.4742 5.81805C19.3699 5.81805 19.2884 5.89951 19.2884 5.99827C19.2884 6.09702 19.3699 6.17849 19.4742 6.17849C19.5786 6.17849 19.66 6.09702 19.66 5.99827C19.6656 5.89951 19.5786 5.81805 19.4742 5.81805ZM18.8761 5.87049C18.7717 5.87049 18.6903 5.95195 18.6903 6.05071C18.6903 6.14947 18.7717 6.23093 18.8761 6.23093C18.9804 6.23093 19.0619 6.14947 19.0619 6.05071C19.0619 5.95195 18.9804 5.87049 18.8761 5.87049ZM18.4347 5.3767C18.3304 5.3767 18.2489 5.45816 18.2489 5.55692C18.2489 5.65568 18.3304 5.73714 18.4347 5.73714C18.5391 5.73714 18.6205 5.65568 18.6205 5.55692C18.6261 5.45816 18.5391 5.3767 18.4347 5.3767ZM17.8595 5.01068C17.7551 5.01068 17.6737 5.09214 17.6737 5.1909C17.6737 5.28966 17.7551 5.37112 17.8595 5.37112C17.9638 5.37112 18.0453 5.28966 18.0453 5.1909C18.0453 5.09214 17.9638 5.01068 17.8595 5.01068ZM17.2614 4.79587C17.157 4.79587 17.0756 4.87733 17.0756 4.97609C17.0756 5.07485 17.157 5.15631 17.2614 5.15631C17.3657 5.15631 17.4472 5.07485 17.4472 4.97609C17.4527 4.87733 17.3657 4.79587 17.2614 4.79587ZM16.6515 4.69153C16.5472 4.69153 16.4657 4.77299 16.4657 4.87175C16.4657 4.97051 16.5472 5.05197 16.6515 5.05197C16.7558 5.05197 16.8373 4.97051 16.8373 4.87175C16.8373 4.77299 16.7558 4.69153 16.6515 4.69153ZM10.8493 9.45984C11.0117 9.37279 11.0703 9.17528 10.9827 9.01849C10.9375 8.9421 10.8645 8.88615 10.779 8.86233C10.6936 8.83852 10.6022 8.84869 10.524 8.89072C10.3616 8.97776 10.3031 9.17528 10.3907 9.33206C10.4783 9.48885 10.6869 9.54688 10.8493 9.45984ZM13.2541 8.3562C13.4343 8.30989 13.5442 8.13524 13.4979 7.96116C13.4516 7.78708 13.2658 7.68218 13.0856 7.72905C12.9054 7.77592 12.7955 7.95 12.8418 8.12408C12.867 8.2087 12.9241 8.2802 13.001 8.32351C13.0779 8.36682 13.1687 8.37854 13.2541 8.3562ZM16.0534 8.01361C16.2392 8.01361 16.3904 7.86854 16.3904 7.68832C16.3897 7.64482 16.3804 7.60189 16.363 7.56199C16.3457 7.52209 16.3206 7.48599 16.2893 7.45578C16.258 7.42557 16.2211 7.40182 16.1806 7.38591C16.1401 7.36999 16.0969 7.36222 16.0534 7.36303C16.0099 7.36222 15.9666 7.36999 15.9262 7.38591C15.8857 7.40182 15.8487 7.42557 15.8174 7.45578C15.7861 7.48599 15.7611 7.52209 15.7437 7.56199C15.7264 7.60189 15.7171 7.64482 15.7164 7.68832C15.7164 7.86854 15.8676 8.01361 16.0534 8.01361ZM12.7832 7.45007C12.8875 7.45007 12.969 7.36861 12.969 7.26985C12.969 7.17109 12.8875 7.08963 12.7832 7.08963C12.6788 7.08963 12.5974 7.17109 12.5974 7.26985C12.5918 7.36861 12.6788 7.45007 12.7832 7.45007ZM12.94 6.79949C13.0443 6.79949 13.1258 6.71803 13.1258 6.61927C13.1258 6.52051 13.0443 6.43905 12.94 6.43905C12.8356 6.43905 12.7542 6.52051 12.7542 6.61927C12.7486 6.71803 12.8356 6.79949 12.94 6.79949ZM10.6111 8.51298C10.7154 8.51298 10.7969 8.43152 10.7969 8.33276C10.7969 8.234 10.7154 8.15254 10.6111 8.15254C10.5067 8.15254 10.4253 8.234 10.4253 8.33276C10.4253 8.43152 10.5067 8.51298 10.6111 8.51298ZM10.7678 7.8624C10.8722 7.8624 10.9536 7.78094 10.9536 7.68218C10.9522 7.63388 10.932 7.58804 10.8973 7.55439C10.8626 7.52075 10.8162 7.50194 10.7678 7.50196C10.6635 7.50196 10.582 7.58342 10.582 7.68218C10.582 7.78094 10.6635 7.8624 10.7678 7.8624ZM11.0468 7.29329C11.1512 7.29329 11.2326 7.21182 11.2326 7.11307C11.2326 7.01431 11.1512 6.93284 11.0468 6.93284C10.9425 6.93284 10.861 7.01431 10.861 7.11307C10.861 7.21182 10.9481 7.29329 11.0468 7.29329ZM11.4943 6.78778C11.5986 6.78778 11.6801 6.70631 11.6801 6.60756C11.6801 6.5088 11.5986 6.42734 11.4943 6.42734C11.39 6.42734 11.3085 6.5088 11.3085 6.60756C11.3085 6.70631 11.39 6.78778 11.4943 6.78778ZM12.0405 6.40446C12.1449 6.40446 12.2263 6.323 12.2263 6.22424C12.2263 6.12548 12.1449 6.04402 12.0405 6.04402C11.9362 6.04402 11.8547 6.12548 11.8547 6.22424C11.8547 6.323 11.9418 6.40446 12.0405 6.40446ZM12.6331 6.18351C12.7374 6.18351 12.8189 6.10205 12.8189 6.00329C12.8189 5.90453 12.7374 5.82307 12.6331 5.82307C12.5288 5.82307 12.4473 5.90453 12.4473 6.00329C12.4473 6.10205 12.5288 6.18351 12.6331 6.18351ZM13.2312 6.22982C13.3356 6.22982 13.417 6.14836 13.417 6.0496C13.417 5.95084 13.3356 5.86938 13.2312 5.86938C13.1269 5.86938 13.0454 5.95084 13.0454 6.0496C13.0454 6.14836 13.1269 6.22982 13.2312 6.22982ZM13.6726 5.74216C13.7769 5.74216 13.8584 5.6607 13.8584 5.56194C13.8584 5.46318 13.7769 5.38172 13.6726 5.38172C13.5682 5.38172 13.4868 5.46318 13.4868 5.56194C13.4868 5.6607 13.5682 5.74216 13.6726 5.74216ZM14.2478 5.37056C14.3522 5.37056 14.4336 5.2891 14.4336 5.19034C14.4336 5.09158 14.3522 5.01012 14.2478 5.01012C14.1435 5.01012 14.062 5.09158 14.062 5.19034C14.062 5.2891 14.1435 5.37056 14.2478 5.37056ZM14.846 5.15575C14.9503 5.15575 15.0318 5.07429 15.0318 4.97553C15.0318 4.87677 14.9503 4.79531 14.846 4.79531C14.7416 4.79531 14.6602 4.87677 14.6602 4.97553C14.6602 5.07429 14.7416 5.15575 14.846 5.15575ZM16.0534 6.93284C16.1577 6.93284 16.2392 6.85138 16.2392 6.75262C16.2392 6.65387 16.1577 6.5724 16.0534 6.5724C15.949 6.5724 15.8676 6.65387 15.8676 6.75262C15.8676 6.85138 15.949 6.93284 16.0534 6.93284ZM16.0534 6.27669C16.1577 6.27669 16.2392 6.19522 16.2392 6.09647C16.2392 5.99771 16.1577 5.91625 16.0534 5.91625C15.949 5.91625 15.8676 5.99771 15.8676 6.09647C15.8676 6.19522 15.949 6.27669 16.0534 6.27669ZM16.0534 5.62053C16.1577 5.62053 16.2392 5.53907 16.2392 5.44031C16.2392 5.34155 16.1577 5.26009 16.0534 5.26009C15.949 5.26009 15.8676 5.34155 15.8676 5.44031C15.8676 5.53907 15.949 5.62053 16.0534 5.62053ZM15.4608 5.05141C15.5652 5.05141 15.6466 4.96995 15.6466 4.87119C15.6452 4.82289 15.625 4.77705 15.5903 4.7434C15.5556 4.70976 15.5091 4.69095 15.4608 4.69097C15.3565 4.69097 15.2689 4.77243 15.2689 4.87119C15.2689 4.97553 15.3559 5.05141 15.4608 5.05141ZM20.6186 9.49499C20.7754 9.57645 20.8976 9.5413 21.0482 9.48941C20.7983 9.36722 20.6649 9.2573 20.781 8.97274C20.8334 8.84497 20.897 8.74621 21.0365 8.70548C20.9495 7.59626 20.6297 7.06731 19.5847 6.56236L19.5094 6.5858C19.5094 6.59751 19.5149 6.60923 19.5149 6.62653C19.5149 6.77773 19.4279 6.85306 19.3118 6.93452C19.4977 6.96911 19.6662 7.05671 19.6662 7.27153C19.6662 7.45175 19.5384 7.5505 19.376 7.59681C19.4285 7.69557 19.4402 7.7363 19.4285 7.85236C19.6433 7.95112 19.6896 8.07889 19.6316 8.2937C19.5501 8.59556 19.3643 8.62457 19.068 8.54925C19.0521 8.64149 19.068 8.73641 19.1131 8.8184C19.1583 8.9004 19.23 8.96459 19.3165 9.00043C19.4029 9.03627 19.499 9.04161 19.589 9.01559C19.6789 8.98957 19.7573 8.93372 19.8112 8.85724C19.8112 8.82823 19.8168 8.80479 19.8229 8.77578C19.8693 8.6017 20.055 8.49122 20.2414 8.53753C20.4278 8.58384 20.5377 8.76406 20.4852 8.93815C20.4679 8.99617 20.4389 9.04248 20.3982 9.08322C20.3926 9.2573 20.4679 9.41408 20.6191 9.49555L20.6186 9.49499ZM15.7627 5.43473C15.7627 5.41129 15.7683 5.38842 15.7683 5.3594C14.4035 5.26065 13.4215 6.16119 13.2881 7.4272C13.4103 7.47351 13.4566 7.52595 13.5091 7.64201C13.7473 7.63029 13.8517 7.72347 13.9097 7.93215C13.9912 8.22842 13.84 8.34448 13.5437 8.4198C13.6307 8.61174 13.8109 8.74509 14.0431 8.68707C14.131 8.66699 14.2095 8.61751 14.2655 8.54679C14.3215 8.47608 14.3517 8.38837 14.351 8.29817C14.3164 8.24674 14.2982 8.18607 14.2986 8.12408C14.2986 7.94386 14.4498 7.79322 14.6412 7.79322C14.827 7.79322 14.9838 7.93828 14.9838 8.12408C14.9837 8.15957 14.9778 8.1948 14.9665 8.22842C14.991 8.31519 15.0437 8.39135 15.1162 8.44496C15.1887 8.49858 15.2769 8.52663 15.3671 8.5247C15.6053 8.5247 15.7448 8.3562 15.7794 8.14696C15.4776 8.14696 15.3029 8.07164 15.3029 7.76364C15.3029 7.54269 15.3844 7.43278 15.6165 7.38591C15.6689 7.11307 15.814 7.09577 16.0461 7.06062C16.2844 7.10135 16.4239 7.11307 16.4757 7.38591C16.7079 7.43222 16.7893 7.54269 16.7893 7.76364C16.7893 8.07164 16.6152 8.14696 16.3128 8.14696C16.3474 8.3562 16.4869 8.5247 16.7252 8.5247C16.8149 8.52478 16.9022 8.49603 16.9744 8.44268C17.0465 8.38934 17.0996 8.31423 17.1258 8.22842C17.1144 8.19481 17.1086 8.15957 17.1085 8.12408C17.1085 7.94386 17.2597 7.79322 17.4511 7.79322C17.6424 7.79322 17.7936 7.93828 17.7936 8.12408C17.7941 8.18608 17.7759 8.24677 17.7412 8.29817C17.7468 8.48397 17.8634 8.64075 18.0492 8.68707C18.2813 8.74509 18.4615 8.61174 18.5486 8.4198C18.2523 8.34448 18.1072 8.22786 18.1825 7.93215C18.2406 7.72291 18.3449 7.63029 18.5832 7.64201C18.6412 7.52595 18.6819 7.47351 18.8041 7.4272C18.6708 6.16119 17.6949 5.26065 16.324 5.3594C16.3289 5.38419 16.3308 5.40949 16.3296 5.43473C16.3296 5.49889 16.3061 5.55078 16.2715 5.60323V5.92294C16.3061 5.97539 16.3296 6.02728 16.3296 6.09144C16.3296 6.15561 16.3061 6.2075 16.2715 6.25995L16.2771 6.59082C16.3061 6.63713 16.3296 6.68958 16.3296 6.7476C16.3296 6.93954 16.1845 6.99143 16.0394 7.0556C15.8944 6.99143 15.7493 6.9334 15.7493 6.7476C15.7493 6.68344 15.7727 6.63155 15.8073 6.5791V6.26553C15.7711 6.21668 15.7508 6.15783 15.7493 6.09702C15.7493 6.03286 15.7727 5.98097 15.8073 5.92852V5.60323C15.7772 5.55218 15.7612 5.49401 15.761 5.43473H15.7627ZM11.3252 8.97162C11.4357 9.25618 11.3079 9.36666 11.058 9.48829C11.2092 9.54074 11.3308 9.57533 11.4876 9.49387C11.5597 9.45702 11.6186 9.39868 11.6561 9.3269C11.6935 9.25513 11.7078 9.17348 11.6968 9.09326C11.6559 9.0531 11.626 9.00317 11.6098 8.94819C11.5904 8.86119 11.6056 8.77005 11.6523 8.6941C11.6989 8.61816 11.7734 8.56339 11.8598 8.54144C11.9095 8.52834 11.9616 8.52661 12.0121 8.53638C12.0626 8.54616 12.1103 8.56718 12.1515 8.59789C12.1928 8.6286 12.2266 8.66822 12.2505 8.71379C12.2744 8.75937 12.2877 8.80973 12.2894 8.86115C12.5505 9.19202 13.0795 9.01793 13.0326 8.55315C12.7363 8.6229 12.5505 8.59389 12.4691 8.29761C12.411 8.08838 12.4573 7.95502 12.6721 7.85627C12.6594 7.76758 12.6779 7.6772 12.7246 7.60072C12.5622 7.55441 12.4345 7.45565 12.4345 7.27543C12.4345 7.05448 12.603 6.97358 12.7888 6.93842C12.6783 6.85138 12.5912 6.78164 12.5912 6.63043C12.5912 6.61871 12.5912 6.60142 12.5159 6.57798C11.453 7.08349 11.1567 7.59458 11.0641 8.71552C11.2092 8.75011 11.2733 8.84329 11.3252 8.97107V8.97162ZM20.363 10.0228C19.0563 9.43026 17.5922 9.09326 16.0534 9.09326C14.5145 9.09326 13.0566 9.42413 11.7493 10.0167C11.6622 10.0574 11.5635 10.0167 11.5228 9.93522C11.482 9.84818 11.5228 9.78401 11.5635 9.71427C11.2962 9.79573 11.0987 9.79573 10.8666 9.62109C10.437 9.90007 9.94318 9.32481 10.2685 9.06369C10.1173 8.87175 10.1173 8.66307 10.3382 8.52358C10.2964 8.46623 10.2739 8.39705 10.274 8.32607C10.274 8.11125 10.4425 8.02421 10.6283 7.98906C10.5179 7.9076 10.4308 7.83227 10.4308 7.68107C10.4308 7.46011 10.6111 7.36749 10.8024 7.3502C10.75 7.26874 10.7093 7.21071 10.7093 7.11195C10.7093 6.93173 10.8605 6.78666 11.0518 6.78666C11.1099 6.78666 11.1679 6.80396 11.2203 6.82125C11.1857 6.74593 11.1562 6.6879 11.1562 6.60644C11.1562 6.42622 11.3074 6.28115 11.4988 6.28115C11.5919 6.28115 11.6438 6.31574 11.7253 6.35089C11.7119 6.30952 11.704 6.26656 11.7019 6.22312C11.7019 6.0429 11.8531 5.89225 12.0444 5.89225C12.1488 5.89225 12.2068 5.93298 12.2883 5.98543C12.329 5.81135 12.4278 5.67186 12.6309 5.67186C12.7821 5.67186 12.8691 5.75332 12.9444 5.8638C13.0259 5.77676 13.1012 5.71873 13.229 5.71873C13.2814 5.71873 13.3278 5.73045 13.3802 5.74216C13.3487 5.68506 13.3308 5.62149 13.3278 5.55636C13.3278 5.37614 13.479 5.23107 13.6648 5.23107C13.7752 5.23107 13.8333 5.27738 13.9203 5.32983C13.9147 5.2891 13.8969 5.23665 13.8969 5.19034C13.8969 5.01012 14.0481 4.86505 14.2395 4.86505C14.3499 4.86505 14.408 4.90578 14.4894 4.96381C14.5301 4.78973 14.6289 4.65024 14.8381 4.65024C14.9659 4.65024 15.0357 4.70269 15.1171 4.78359C15.1813 4.6441 15.2739 4.54534 15.448 4.54534C15.4939 4.54662 15.5391 4.55646 15.5813 4.57436C15.6705 4.46823 15.7938 4.39643 15.9301 4.37126V4.02309H15.6455V3.81386H15.9301V3.56445H16.1566V3.81442H16.4412V4.01751H16.1566V4.36624C16.2924 4.39269 16.4153 4.46426 16.5053 4.56934C16.5476 4.55144 16.5928 4.5416 16.6387 4.54032C16.8128 4.54032 16.9059 4.64466 16.9695 4.77857C17.051 4.69711 17.1263 4.64522 17.2485 4.64522C17.4578 4.64522 17.5565 4.79029 17.5911 4.95879C17.6726 4.90076 17.7362 4.86003 17.8467 4.86003C18.0325 4.86003 18.1892 5.0051 18.1892 5.18532C18.1892 5.23163 18.1775 5.28408 18.1719 5.32481C18.259 5.27236 18.317 5.23163 18.4275 5.23163C18.6133 5.23163 18.7701 5.3767 18.7701 5.55692C18.7701 5.62667 18.7466 5.67911 18.7176 5.74272C18.7669 5.7288 18.8177 5.72093 18.8688 5.71929C18.9966 5.71929 19.0719 5.77731 19.1534 5.86436C19.2287 5.7483 19.3158 5.67242 19.467 5.67242C19.6762 5.67242 19.775 5.81749 19.8157 5.98599C19.8971 5.93354 19.9552 5.89281 20.0595 5.89281C20.2453 5.89281 20.4021 6.03788 20.4021 6.22368C20.4021 6.26441 20.3904 6.31072 20.3848 6.35145C20.4601 6.31072 20.5182 6.28171 20.6058 6.28171C20.7916 6.28171 20.9483 6.42678 20.9483 6.607C20.9483 6.68846 20.9193 6.74649 20.8842 6.81623C20.9422 6.79893 20.9947 6.78164 21.0583 6.78164C21.2441 6.78164 21.4008 6.92671 21.4008 7.10693C21.4008 7.20569 21.3601 7.26371 21.3077 7.34518C21.5052 7.36247 21.6854 7.45565 21.6854 7.67604C21.6854 7.82725 21.5984 7.90258 21.4879 7.98404C21.6737 8.02477 21.8422 8.10623 21.8422 8.32104C21.8422 8.40251 21.8188 8.4544 21.778 8.51856C22.0046 8.65805 21.999 8.86115 21.8478 9.05308C22.0453 9.20987 21.9409 9.4537 21.778 9.58147C21.6095 9.70924 21.4354 9.73268 21.2496 9.61049C21.0175 9.78457 20.82 9.78457 20.5527 9.70366L20.5935 9.78513C20.6459 9.93019 20.512 10.0753 20.3614 10.0234L20.363 10.0228ZM12.1968 10.3537L11.9178 10.2549L11.8944 10.2142C11.8709 10.2259 11.8536 10.2259 11.8363 10.2315C11.761 10.2371 11.7666 10.1562 11.8017 10.1383C13.0912 9.5519 14.5257 9.22661 16.0478 9.22661C17.5699 9.22661 19.0044 9.5519 20.2939 10.1383C20.3284 10.1556 20.3346 10.2371 20.2593 10.2315C20.242 10.2315 20.2247 10.2259 20.2012 10.2142L20.1778 10.2549L19.8988 10.3537L19.9803 10.6617L19.9568 10.7141C20.1019 10.7783 20.0032 10.8826 19.9396 10.8536C18.7544 10.3135 17.436 10.0172 16.0422 10.0172C14.6484 10.0172 13.33 10.3135 12.1449 10.8536C12.1159 10.8653 12.0807 10.8536 12.0634 10.819C12.0461 10.7844 12.0634 10.761 12.0869 10.7376C12.0986 10.7258 12.1159 10.7203 12.1332 10.7141L12.1097 10.6617L12.1968 10.3537ZM13.7362 10.1272L14.3287 9.72654L13.6084 9.65122L13.0159 10.0518L13.7362 10.1272ZM19.5791 10.4988C19.7125 10.4988 19.8229 10.3944 19.8229 10.2666C19.8229 10.1389 19.7125 10.0345 19.5791 10.0345C19.4458 10.0345 19.3353 10.1389 19.3353 10.2666C19.3409 10.3944 19.4458 10.4988 19.5791 10.4988ZM14.851 9.89449C14.9843 9.89449 15.0948 9.79015 15.0948 9.66237C15.0948 9.5346 14.9843 9.43026 14.851 9.43026C14.7176 9.43026 14.6071 9.5346 14.6071 9.66237C14.6071 9.79015 14.7176 9.89449 14.851 9.89449ZM12.5276 10.4988C12.661 10.4988 12.7715 10.3944 12.7715 10.2666C12.7715 10.1389 12.6671 10.0345 12.5276 10.0345C12.3943 10.0345 12.2838 10.1389 12.2838 10.2666C12.2838 10.3944 12.3943 10.4988 12.5276 10.4988ZM17.2558 9.89449C17.3891 9.89449 17.4996 9.79015 17.4996 9.66237C17.4996 9.5346 17.3891 9.43026 17.2558 9.43026C17.2249 9.42975 17.1941 9.43535 17.1654 9.44676C17.1367 9.45817 17.1105 9.47515 17.0883 9.49672C17.0662 9.5183 17.0485 9.54404 17.0364 9.57247C17.0242 9.6009 17.0178 9.63146 17.0175 9.66237C17.0175 9.79015 17.128 9.89449 17.2558 9.89449ZM18.3711 10.1266L19.0915 10.0513L18.4989 9.65066L17.7786 9.72598L18.3711 10.1266ZM16.8089 9.59821L16.0534 9.32593L15.2985 9.59877L16.0534 9.87161L16.8089 9.59821ZM8.23527 18.8692C8.23527 23.0221 11.7549 26.4201 16.0534 26.4201C20.3575 26.4201 23.8771 23.0221 23.8771 18.8692C23.8771 14.7046 20.3575 11.3184 16.0534 11.3184C11.7493 11.3184 8.23527 14.7046 8.23527 18.8692ZM24.7252 18.8692C24.7252 23.4752 20.8334 27.2392 16.0534 27.2392C11.2733 27.2392 7.38159 23.4752 7.38159 18.8692C7.38159 14.2577 11.2733 10.4937 16.0534 10.4937C20.8334 10.4882 24.7252 14.2516 24.7252 18.8692ZM14.9151 15.3084L16.0478 16.4237L17.1051 15.3435C16.7335 15.2503 16.3792 15.1811 15.9898 15.1694C15.6299 15.1521 15.2639 15.2336 14.9151 15.3089V15.3084ZM17.8946 14.53L19.5557 12.8745C21.7049 14.0652 23.1512 16.2954 23.1512 18.8452C23.1512 20.5063 22.5413 22.0284 21.513 23.2191L20.7402 22.4697C21.6112 21.4414 22.1809 20.4192 22.1809 18.7816C22.1809 17.0336 21.234 15.0818 19.7242 14.0714L18.7254 15.0589C19.2365 15.4305 19.6433 15.8021 19.9859 16.325L19.2248 16.9582C18.923 16.4471 18.5335 16.0873 18.0341 15.7558L16.0478 17.7773L13.9856 15.7268C12.9171 16.4471 12.2894 17.4749 12.2604 18.7532C12.2258 20.455 13.364 21.6339 14.9615 22.1511V18.7359H17.4008V19.4389H15.9083V20.3506H17.3835V21.1524H15.9083V22.3024C17.0002 22.3548 18.1675 21.745 18.8761 20.9895L19.6081 21.7037C18.673 22.7493 17.3255 23.2777 15.9139 23.2894V24.3406H14.967V23.1789C12.8122 22.6622 11.2499 20.8383 11.2789 18.66C11.2962 17.1675 12.1209 15.9416 13.3177 15.0707L12.3072 14.0602C10.7388 15.2972 9.89687 16.8076 9.82712 18.7705C9.77467 20.5074 10.7042 21.9012 11.2906 22.4876L10.6111 23.1555C9.55986 21.9704 8.93829 20.5068 8.93829 18.8397C8.93829 16.3071 10.3845 14.0769 12.5159 12.8863L14.2004 14.5824C14.7985 14.3615 15.4201 14.2454 16.059 14.2454C16.6683 14.2545 17.2715 14.3685 17.8422 14.5824L17.8946 14.53Z" fill="#FCBF00"/>
<path d="M24.9806 18.8694C24.9806 23.6149 20.9728 27.4888 16.0533 27.4888C11.1277 27.4888 7.12598 23.6149 7.12598 18.8694C7.12598 14.1179 11.1338 10.2384 16.0533 10.2384C20.979 10.2384 24.9806 14.1184 24.9806 18.8694ZM24.7251 18.8694C24.7251 14.2579 20.8333 10.4939 16.0533 10.4939C11.2733 10.4939 7.38152 14.2574 7.38152 18.8694C7.38152 23.4754 11.2733 27.2394 16.0533 27.2394C20.8333 27.2394 24.7251 23.4754 24.7251 18.8694ZM8.49074 18.8694C8.49074 22.8828 11.8943 26.1703 16.0533 26.1703C20.2123 26.1703 23.6159 22.8884 23.6159 18.8694C23.6159 14.8443 20.2123 11.5741 16.0533 11.5741C11.8948 11.5686 8.49074 14.8443 8.49074 18.8694ZM8.2352 18.8694C8.2352 14.7048 11.7548 11.3186 16.0533 11.3186C20.3574 11.3186 23.877 14.7048 23.877 18.8694C23.877 23.0223 20.3574 26.4203 16.0533 26.4203C11.7492 26.4147 8.2352 23.0223 8.2352 18.8694ZM16.9706 17.2023L21.1988 21.4132C21.6809 20.6465 21.9247 19.8626 21.9247 18.7763C21.9247 16.8825 20.8211 15.1579 19.7581 14.3913L19.1193 15.0245C19.6011 15.3942 20.009 15.8514 20.3217 16.372L19.1483 17.3535C18.8693 16.8189 18.573 16.4418 18.0681 16.0875L16.9706 17.2023ZM22.3315 22.5402C21.5704 23.789 20.4087 24.7765 19.0322 25.3691L18.3476 24.6951L17.0699 23.4346C16.7739 23.499 16.4722 23.534 16.1694 23.539V24.5963H14.7058V23.3766C12.5103 22.8014 10.9943 20.815 11.0177 18.6602C11.0233 18.3003 11.0758 17.9516 11.1628 17.6146L10.4425 16.906C10.2277 17.4868 10.1055 18.114 10.0826 18.7818C10.0419 20.1176 10.6461 21.5638 11.651 22.4872L10.5937 23.5267C9.35056 22.1792 8.67096 20.6633 8.67096 18.8393C8.67096 16.179 10.1814 13.8556 12.5566 12.5779L14.2584 14.297C14.8219 14.0995 15.4608 14.0007 16.0472 14.0007C16.6805 14.0063 17.2551 14.1168 17.7724 14.297L19.5032 12.56C21.8962 13.8439 23.4061 16.1672 23.4061 18.8443C23.4117 20.2035 23.0345 21.4349 22.3315 22.5386V22.5402ZM14.6991 21.1057L12.5159 18.9565C12.5683 20.1589 13.3288 21.2971 14.6997 21.8026L14.6991 21.1057ZM17.8946 14.5302L17.8365 14.5882C17.2674 14.369 16.6632 14.255 16.0533 14.2518C15.4144 14.2518 14.7929 14.3678 14.1947 14.5888L12.5103 12.8926C10.3789 14.0777 8.93264 16.3079 8.93264 18.8404C8.93264 20.5132 9.55421 21.9711 10.6054 23.1562L11.285 22.4883C10.6986 21.9019 9.76902 20.5076 9.82147 18.7712C9.89122 16.8078 10.7332 15.2979 12.3016 14.061L13.3121 15.0714C12.1158 15.9424 11.2906 17.1682 11.2733 18.6608C11.2443 20.839 12.801 22.6624 14.9614 23.1797V24.3413H15.9082V23.289C17.3254 23.2773 18.6729 22.7489 19.6025 21.7033L18.8704 20.9891C18.1618 21.744 17.0002 22.36 15.9027 22.302V21.152H17.3779V20.3503H15.9027V19.4386H17.3952V18.7355H14.9558V22.1508C13.3584 21.6341 12.2146 20.4546 12.2547 18.7528C12.2837 17.4751 12.9109 16.4468 13.9799 15.7265L16.0421 17.777L18.0285 15.7555C18.534 16.0863 18.9173 16.4468 19.2192 16.9579L19.9802 16.3246C19.6376 15.8018 19.2309 15.4302 18.7198 15.0586L19.7185 14.071C21.2289 15.0815 22.1752 17.0332 22.1752 18.7813C22.1752 20.4133 21.6061 21.4416 20.7346 22.4694L21.5073 23.2187C22.5646 22.007 23.1467 20.453 23.1455 18.8449C23.1455 16.295 21.6993 14.0649 19.55 12.8742L17.8946 14.5302ZM14.9151 15.3085C15.2638 15.2332 15.6293 15.1518 15.9897 15.1635C16.3786 15.1752 16.7329 15.2449 17.1051 15.3376L16.0477 16.4178L14.9151 15.3085ZM15.4317 15.4598L16.0416 16.064L16.6107 15.4832C16.4076 15.4425 16.1984 15.4252 15.9774 15.419C15.8441 15.4134 15.6404 15.4307 15.4312 15.4598H15.4317ZM19.9741 10.389L20.0265 10.5921L20.05 10.6619L20.0907 10.6384L20.2882 10.5341L20.2358 10.3366L20.224 10.2959L19.9741 10.389ZM20.363 10.023C20.5142 10.0755 20.6475 9.92426 20.5778 9.79648L20.5371 9.71502C20.8043 9.79648 21.0018 9.79648 21.2339 9.62184C21.4197 9.74404 21.5883 9.7206 21.7623 9.59283C21.9308 9.46506 22.0296 9.22123 21.8321 9.06444C21.9833 8.87251 21.9889 8.66383 21.7623 8.52992C21.8031 8.46575 21.8265 8.41386 21.8265 8.3324C21.8265 8.11759 21.658 8.03055 21.4722 7.9954C21.5827 7.90835 21.6697 7.83861 21.6697 7.6874C21.6697 7.46645 21.4895 7.37383 21.292 7.35653C21.3444 7.27507 21.3852 7.22318 21.3852 7.11829C21.3852 6.93807 21.2339 6.793 21.0426 6.793C20.9845 6.793 20.9265 6.81029 20.8685 6.82759C20.9031 6.75227 20.9326 6.69982 20.9326 6.61836C20.9326 6.43814 20.7814 6.29307 20.5901 6.29307C20.4969 6.29307 20.445 6.32208 20.3691 6.36281C20.3747 6.32208 20.3864 6.27577 20.3864 6.23504C20.3848 6.14575 20.3478 6.06076 20.2836 5.99872C20.2193 5.93668 20.1331 5.90268 20.0438 5.90417C19.9395 5.90417 19.8815 5.9449 19.8 5.99735C19.7593 5.82327 19.6605 5.68378 19.4513 5.68378C19.3001 5.68378 19.213 5.76524 19.1377 5.87571C19.0562 5.78867 18.9809 5.73064 18.8531 5.73064C18.8007 5.73064 18.7488 5.74236 18.7019 5.75408C18.7309 5.68991 18.7544 5.63802 18.7544 5.56828C18.7544 5.38806 18.6032 5.24299 18.4118 5.24299C18.3013 5.24299 18.2433 5.28372 18.1562 5.33617C18.1618 5.29544 18.1735 5.24299 18.1735 5.19668C18.1735 5.01646 18.0223 4.87139 17.831 4.87139C17.7205 4.87139 17.6625 4.91212 17.5754 4.97015C17.5347 4.79606 17.4359 4.65658 17.2328 4.65658C17.1051 4.65658 17.0353 4.70902 16.9538 4.78993C16.8841 4.65044 16.7971 4.55168 16.623 4.55168C16.5705 4.55168 16.5359 4.5634 16.4896 4.58069C16.4005 4.47457 16.2772 4.40277 16.1409 4.3776V4.02887H16.4255V3.81406H16.1409V3.56465H15.9144V3.81462H15.6298V4.01771H15.9144V4.36644C15.7693 4.40103 15.6761 4.45348 15.5657 4.56953C15.5234 4.55165 15.4782 4.54181 15.4323 4.54052C15.2582 4.54052 15.165 4.64486 15.1014 4.77877C15.02 4.69731 14.9446 4.64542 14.8225 4.64542C14.6132 4.64542 14.5145 4.79049 14.4737 4.95899C14.3923 4.90096 14.3287 4.86023 14.2238 4.86023C14.038 4.86023 13.8812 5.0053 13.8812 5.18552C13.8812 5.23183 13.8929 5.28428 13.9046 5.32501C13.8176 5.27256 13.7534 5.22625 13.6491 5.22625C13.6056 5.22544 13.5623 5.23321 13.5218 5.24913C13.4814 5.26504 13.4444 5.28879 13.4131 5.319C13.3818 5.34921 13.3568 5.38531 13.3394 5.42521C13.3221 5.46511 13.3128 5.50804 13.3121 5.55154C13.3121 5.62128 13.3355 5.67373 13.3645 5.73734C13.3121 5.72562 13.2657 5.71391 13.2133 5.71391C13.0855 5.71391 13.0102 5.77193 12.9287 5.85897C12.8534 5.74292 12.7664 5.66704 12.6152 5.66704C12.4059 5.66704 12.3072 5.81211 12.2726 5.98061C12.2084 5.9343 12.1448 5.89357 12.0405 5.89357C11.9512 5.89207 11.865 5.92608 11.8007 5.98812C11.7365 6.05016 11.6995 6.13515 11.6979 6.22444C11.6979 6.26517 11.7096 6.31148 11.7152 6.35221C11.6499 6.30748 11.5728 6.2832 11.4937 6.28246C11.3079 6.28246 11.1511 6.42753 11.1511 6.60775C11.1511 6.68922 11.1801 6.74724 11.2153 6.81699C11.1628 6.80527 11.1109 6.78797 11.0467 6.78797C10.8609 6.78797 10.7042 6.93304 10.7042 7.11326C10.7042 7.21202 10.7449 7.27005 10.7973 7.35151C10.6054 7.36881 10.4313 7.46199 10.4313 7.68238C10.4313 7.83359 10.5184 7.90891 10.6288 7.99037C10.443 8.0311 10.2745 8.11257 10.2745 8.32738C10.2745 8.40884 10.298 8.46073 10.3387 8.5249C10.1177 8.66439 10.1177 8.87362 10.269 9.065C9.94366 9.32613 10.4375 9.90696 10.8671 9.6224C11.0992 9.79648 11.2967 9.79648 11.564 9.71558C11.5294 9.7909 11.4825 9.85507 11.5232 9.93653C11.5325 9.95701 11.5457 9.97543 11.5622 9.99068C11.5787 10.0059 11.5981 10.0177 11.6192 10.0253C11.6404 10.0329 11.6628 10.0362 11.6852 10.0349C11.7077 10.0337 11.7296 10.0279 11.7498 10.018C13.0565 9.42544 14.5145 9.09457 16.0539 9.09457C17.5988 9.10015 19.0568 9.43158 20.3635 10.0241L20.363 10.023ZM12.1325 10.389L11.9523 10.3249L11.8826 10.3014L11.8709 10.3422L11.8184 10.5341L12.0159 10.6384L12.0567 10.6619L12.0739 10.5866L12.1325 10.389ZM12.0165 10.7026L11.7554 10.5631L11.8195 10.3132C11.7208 10.3014 11.6745 10.191 11.7208 10.1156C11.6672 10.1235 11.6125 10.1142 11.5646 10.0891C11.5166 10.0641 11.4777 10.0246 11.4535 9.97615C11.4301 9.92984 11.4245 9.88297 11.4301 9.83666C11.3332 9.85612 11.2333 9.85587 11.1365 9.83594C11.0397 9.816 10.9479 9.77677 10.8665 9.7206C10.4079 9.98786 9.86778 9.349 10.1635 9.05273C10.0301 8.86079 10.0647 8.62868 10.2332 8.50091C10.2049 8.44737 10.1908 8.38739 10.1925 8.32682C10.1925 8.15832 10.303 8.01325 10.4536 7.94908C10.3865 7.87631 10.3492 7.78087 10.3493 7.68182C10.3493 7.48989 10.4888 7.3331 10.669 7.28679C10.6406 7.23325 10.6266 7.17328 10.6283 7.11271C10.6283 6.88618 10.8141 6.70595 11.0467 6.70595H11.0875C11.073 6.64504 11.0727 6.58163 11.0865 6.52056C11.1002 6.45949 11.1278 6.40238 11.1671 6.3536C11.2063 6.30482 11.2562 6.26566 11.3129 6.23912C11.3696 6.21257 11.4316 6.19935 11.4942 6.20044C11.5374 6.20007 11.5805 6.2059 11.622 6.21774C11.622 5.99679 11.8139 5.81713 12.0405 5.81713C12.1072 5.81725 12.173 5.83311 12.2324 5.86344C12.2904 5.70665 12.4472 5.59618 12.6274 5.59618C12.6894 5.59608 12.7507 5.60957 12.8069 5.63569C12.8631 5.66181 12.9129 5.69994 12.9527 5.74738C13.0306 5.68158 13.1298 5.64647 13.2317 5.64862H13.2607C13.2551 5.61961 13.249 5.5906 13.249 5.56158C13.249 5.33505 13.4348 5.15483 13.6675 5.15483C13.7255 5.15483 13.778 5.16655 13.8243 5.18385C13.8298 4.96289 14.0162 4.78323 14.2427 4.78323C14.3181 4.78323 14.3878 4.80053 14.4458 4.83568C14.5039 4.67889 14.6606 4.56842 14.8409 4.56842C14.9396 4.56842 15.0267 4.59743 15.0964 4.65546C15.1717 4.54498 15.2995 4.46966 15.4507 4.46966C15.4914 4.46966 15.526 4.47524 15.5612 4.48696C15.6309 4.41721 15.7124 4.36476 15.8112 4.32459L15.8519 4.30729V4.09806H15.5673V3.73873H15.8519V3.48877H16.2408V3.73873H16.5253V4.09862H16.2408V4.30785L16.2815 4.32515C16.3764 4.3589 16.4621 4.41452 16.5315 4.48751C16.5661 4.4758 16.6012 4.47022 16.642 4.47022C16.7932 4.47022 16.9209 4.54554 16.9963 4.65602C17.066 4.60357 17.1586 4.56898 17.2518 4.56898C17.432 4.56898 17.5888 4.67945 17.6468 4.83624C17.7049 4.80164 17.7746 4.78379 17.8499 4.78379C18.082 4.78379 18.2684 4.96401 18.2684 5.1844C18.3147 5.16711 18.3672 5.15539 18.4252 5.15539C18.6573 5.15539 18.8437 5.33561 18.8437 5.56214C18.8437 5.59115 18.8437 5.62017 18.8319 5.64918H18.861C18.9622 5.65083 19.0602 5.6855 19.1399 5.74794C19.2153 5.65476 19.3319 5.59673 19.4652 5.59673C19.6454 5.59673 19.8022 5.70721 19.8603 5.864C19.9197 5.83367 19.9855 5.81781 20.0522 5.81769C20.2843 5.81769 20.4707 5.99791 20.4707 6.2183C20.5122 6.20647 20.5552 6.20065 20.5984 6.201C20.8305 6.201 21.0169 6.38122 21.0169 6.60775C21.0169 6.64235 21.0113 6.6775 21.0052 6.71209H21.0459C21.278 6.71209 21.4644 6.89231 21.4644 7.11884C21.4644 7.18301 21.4471 7.24104 21.4237 7.29293C21.6095 7.33366 21.7434 7.49602 21.7434 7.68796C21.7429 7.78972 21.7034 7.88742 21.6329 7.9608C21.7109 7.98853 21.7785 8.03971 21.8264 8.10733C21.8742 8.17495 21.9 8.2557 21.9001 8.33854C21.9001 8.4027 21.8829 8.46073 21.8594 8.51262C22.0279 8.64039 22.0625 8.87251 21.9292 9.06444C22.115 9.25024 21.9526 9.54652 21.7958 9.66871C21.6446 9.78477 21.4298 9.85451 21.2206 9.73288C21.0582 9.84335 20.8545 9.88966 20.657 9.84893C20.6805 10.0113 20.5292 10.1508 20.3669 10.1279C20.4132 10.2032 20.3669 10.3137 20.2681 10.3254L20.3323 10.5754L20.0712 10.7149C20.1058 10.7556 20.1119 10.8136 20.0885 10.8661C20.0539 10.9358 19.9724 10.9766 19.8965 10.9414C18.7231 10.4069 17.4164 10.1106 16.0282 10.1106C14.6959 10.1074 13.3786 10.3907 12.1655 10.9414C12.0901 10.976 12.0087 10.9358 11.9735 10.8661C11.9791 10.8019 11.9852 10.7439 12.0198 10.7037L12.0165 10.7026ZM12.1967 10.3539L12.1152 10.6619L12.1387 10.7143C12.127 10.7199 12.1097 10.726 12.0924 10.7378C12.0689 10.7551 12.0516 10.7785 12.0689 10.8192C12.0862 10.8538 12.1214 10.8655 12.1504 10.8538C13.3355 10.3137 14.6539 10.0174 16.0477 10.0174C17.4476 10.0174 18.76 10.3137 19.9451 10.8538C20.0031 10.8828 20.1074 10.7785 19.9624 10.7143L19.9858 10.6619L19.9043 10.3539L20.1833 10.2551L20.2067 10.2144C20.2302 10.2261 20.2475 10.2261 20.2648 10.2317C20.3401 10.2373 20.3345 10.1564 20.2994 10.1385C18.9657 9.53396 17.5176 9.22322 16.0533 9.22737C14.5318 9.22737 13.0967 9.55266 11.8072 10.1391C11.7727 10.1564 11.7665 10.2378 11.8418 10.2322C11.8591 10.2322 11.8764 10.2267 11.8999 10.215L11.9172 10.2557L12.1967 10.3539ZM18.5742 6.76454C18.2433 5.95718 17.4649 5.38192 16.431 5.43437C16.431 5.50411 16.4076 5.56772 16.373 5.62631V5.89915C16.4076 5.95718 16.431 6.02134 16.431 6.09109C16.431 6.16083 16.4076 6.23057 16.373 6.28302V6.45711C17.0816 6.36393 17.918 6.43367 18.5742 6.7651V6.76454ZM16.3669 6.56144C16.4162 6.63534 16.4352 6.72535 16.4201 6.81289C16.4049 6.90042 16.3567 6.97879 16.2854 7.0318C16.4132 7.07253 16.5119 7.16515 16.5465 7.32808C16.8021 7.38611 16.8718 7.57191 16.8718 7.76942C16.8718 8.00767 16.7731 8.21077 16.4132 8.22806C16.4539 8.36142 16.5817 8.45459 16.7329 8.45459C16.8017 8.45515 16.8689 8.43414 16.9252 8.39451C16.9814 8.35488 17.0238 8.29862 17.0465 8.23364C17.0348 8.19905 17.0348 8.1639 17.0348 8.12931C17.0348 7.90277 17.2267 7.72255 17.4588 7.72255C17.6909 7.72255 17.8828 7.90277 17.8828 8.12931C17.8828 8.19905 17.8656 8.26266 17.8304 8.32124C17.836 8.46073 17.9347 8.57679 18.0804 8.61752C18.2254 8.65211 18.3705 8.59408 18.4464 8.47245C18.1038 8.36811 18.0575 8.14716 18.1211 7.91505C18.1735 7.72311 18.2896 7.56075 18.5451 7.56633C18.5915 7.47315 18.6556 7.41512 18.7309 7.38053C18.7075 7.18859 18.6668 7.00893 18.5976 6.83429C17.9236 6.4744 17.047 6.41024 16.3674 6.509L16.3669 6.56144ZM15.7626 5.43437C15.7626 5.49853 15.786 5.55042 15.8206 5.60287V5.92258C15.786 5.97503 15.7626 6.02692 15.7626 6.09109C15.7626 6.15525 15.786 6.20714 15.8206 6.25959V6.58488C15.786 6.63733 15.7626 6.68922 15.7626 6.75338C15.7626 6.94532 15.9077 6.99721 16.0527 7.06137C16.1978 6.99721 16.3429 6.93918 16.3429 6.75338C16.3429 6.69535 16.3256 6.63733 16.2904 6.5966L16.2849 6.26573C16.3195 6.21328 16.3429 6.16139 16.3429 6.09722C16.3429 6.03306 16.3195 5.98117 16.2849 5.92872V5.60343C16.3195 5.55098 16.3429 5.49909 16.3429 5.43493C16.3429 5.41149 16.3373 5.38862 16.3373 5.3596C17.7021 5.26084 18.6841 6.16139 18.8174 7.42739C18.6952 7.4737 18.6489 7.52615 18.5965 7.64221C18.3582 7.63049 18.2539 7.72367 18.1959 7.93235C18.1144 8.22862 18.2656 8.34468 18.5619 8.42C18.4748 8.61194 18.2946 8.74529 18.0625 8.68726C17.9746 8.6671 17.8962 8.61759 17.8402 8.5469C17.7842 8.4762 17.754 8.38854 17.7545 8.29837C17.7891 8.24694 17.8074 8.18627 17.807 8.12428C17.8054 8.035 17.7684 7.95 17.7041 7.88797C17.6399 7.82593 17.5537 7.79192 17.4644 7.79341C17.3751 7.79192 17.2889 7.82593 17.2246 7.88797C17.1604 7.95 17.1234 8.035 17.1218 8.12428C17.1219 8.15977 17.1277 8.195 17.1391 8.22862C17.1137 8.3149 17.0608 8.39052 16.9885 8.444C16.9162 8.49748 16.8284 8.52588 16.7385 8.5249C16.5002 8.5249 16.3607 8.35639 16.3261 8.14716C16.628 8.14716 16.8026 8.07184 16.8026 7.76384C16.8026 7.54289 16.7212 7.43297 16.4891 7.38611C16.4366 7.11326 16.2916 7.09597 16.0594 7.06082C15.8212 7.10155 15.6817 7.11326 15.6298 7.38611C15.3977 7.43242 15.3162 7.54289 15.3162 7.76384C15.3162 8.07184 15.4903 8.14716 15.7927 8.14716C15.7581 8.35639 15.6187 8.5249 15.3804 8.5249C15.2907 8.52498 15.2033 8.49623 15.1312 8.44288C15.0591 8.38954 15.006 8.31443 14.9798 8.22862C14.9911 8.195 14.997 8.15977 14.9971 8.12428C14.9955 8.035 14.9585 7.95 14.8943 7.88797C14.83 7.82593 14.7438 7.79192 14.6545 7.79341C14.4626 7.79341 14.3119 7.93848 14.3119 8.12428C14.3114 8.18628 14.3297 8.24697 14.3644 8.29837C14.3588 8.48417 14.2422 8.64095 14.0564 8.68726C13.8243 8.74529 13.644 8.61194 13.557 8.42C13.8533 8.34468 13.9983 8.22806 13.923 7.93235C13.865 7.72311 13.7607 7.63049 13.5224 7.64221C13.4644 7.52615 13.4236 7.4737 13.3015 7.42739C13.4348 6.16139 14.4107 5.26084 15.7816 5.3596C15.771 5.38335 15.7651 5.40894 15.7643 5.43493L15.7626 5.43437ZM13.5034 6.84042C13.4393 7.01451 13.393 7.19473 13.3757 7.38666C13.451 7.42126 13.5152 7.47984 13.5615 7.57246C13.8226 7.56688 13.9392 7.72925 13.9911 7.92119C14.0553 8.1533 14.0084 8.37425 13.6658 8.47859C13.7411 8.59464 13.8868 8.65881 14.0318 8.62366C14.1769 8.5885 14.2757 8.46687 14.2818 8.32738C14.2469 8.26947 14.2288 8.20304 14.2293 8.13544C14.2293 7.90891 14.4213 7.72869 14.6534 7.72869C14.8855 7.72869 15.0774 7.90891 15.0774 8.13544C15.0774 8.17004 15.0719 8.20519 15.0657 8.23978C15.089 8.3043 15.1316 8.3601 15.1877 8.39962C15.2438 8.43914 15.3107 8.46047 15.3793 8.46073C15.5305 8.46073 15.6521 8.36755 15.699 8.2342C15.3391 8.2169 15.2404 8.01325 15.2404 7.77556C15.2404 7.57246 15.3101 7.39224 15.5657 7.33422C15.58 7.26652 15.6115 7.20368 15.6573 7.15178C15.703 7.09987 15.7614 7.06066 15.8268 7.03794C15.7843 7.00469 15.7497 6.96241 15.7256 6.91416C15.7015 6.86591 15.6884 6.8129 15.6873 6.75896C15.6873 6.68922 15.7107 6.61947 15.7453 6.56702V6.509C15.054 6.41582 14.1769 6.47998 13.5034 6.83986V6.84042ZM15.6817 5.43493C14.6422 5.3769 13.8695 5.95773 13.5325 6.7651C14.183 6.43981 15.025 6.35835 15.7336 6.45711V6.28246C15.699 6.22444 15.6756 6.16027 15.6756 6.09053C15.6756 6.02078 15.699 5.95104 15.7336 5.89859V5.62575C15.7006 5.56705 15.6826 5.50113 15.6811 5.43381L15.6817 5.43493ZM19.9099 9.12917L19.9333 9.11187C19.9797 9.14646 20.0204 9.1699 20.0784 9.18719C20.1018 9.19277 20.1309 9.19277 20.1537 9.19891C20.1828 9.34398 20.2352 9.46003 20.3395 9.56493L20.2932 9.6291C20.0433 9.52287 19.7894 9.42609 19.5322 9.33896L19.5439 9.26363C19.6717 9.25192 19.805 9.20561 19.9099 9.13028V9.12917ZM19.9333 9.20449C19.8636 9.2508 19.7821 9.28595 19.7012 9.30883C19.8633 9.36725 20.024 9.4292 20.1833 9.49463C20.1374 9.42549 20.1039 9.34881 20.0846 9.2681L20.0611 9.26252C20.0148 9.2508 19.9741 9.22792 19.9333 9.20449ZM16.0126 8.22304H16.094C16.1231 8.43228 16.2625 8.61194 16.4539 8.69954L16.4366 8.77486C16.3089 8.76928 16.1811 8.76928 16.0533 8.76928C15.9255 8.76928 15.7978 8.76928 15.67 8.77486L15.6527 8.69954C15.8446 8.60636 15.9836 8.43228 16.0126 8.22304ZM16.0533 8.37983C16.007 8.50202 15.9255 8.60636 15.8151 8.68782C15.8965 8.68782 15.9718 8.68224 16.0533 8.68224C16.1328 8.6812 16.2122 8.68306 16.2916 8.68782C16.1855 8.60862 16.1031 8.50192 16.0533 8.37927V8.37983ZM11.819 9.62296L11.7727 9.55879C11.877 9.44832 11.9294 9.33784 11.9585 9.19277C12.037 9.18962 12.1124 9.16103 12.1733 9.11131C12.2955 9.19835 12.4171 9.2508 12.5683 9.25638L12.58 9.3317C12.3228 9.41884 12.0689 9.51562 11.819 9.62184V9.62296ZM11.9294 9.49519C12.0888 9.42976 12.2495 9.36781 12.4115 9.30939C12.3301 9.28595 12.2491 9.25136 12.1794 9.20505C12.1448 9.22848 12.0979 9.24578 12.0572 9.2575L12.0338 9.26308C12.0048 9.34454 11.9757 9.42544 11.9294 9.49519ZM13.817 8.91993V8.99526C13.5709 9.04641 13.3267 9.10653 13.085 9.17548L13.0504 9.10573C13.2072 8.97238 13.3003 8.76873 13.2713 8.55949L13.3467 8.54219C13.4281 8.73971 13.6078 8.8792 13.817 8.91993ZM13.6546 8.94895C13.5343 8.89838 13.4299 8.81602 13.3528 8.7107C13.3355 8.83847 13.2886 8.96066 13.2077 9.05942C13.3528 9.01869 13.504 8.9841 13.6552 8.94895H13.6546ZM14.3342 8.8965L14.3052 8.82675C14.4503 8.73357 14.5435 8.61194 14.6015 8.45515H14.6478C14.6941 8.45515 14.7293 8.44344 14.7756 8.43172C14.8743 8.57121 14.9904 8.66997 15.1589 8.71628L15.1533 8.7916C14.8795 8.81993 14.6064 8.85472 14.3342 8.89594V8.8965ZM14.6595 8.53661C14.6188 8.63537 14.5552 8.72241 14.4737 8.79774L14.9904 8.73357C14.8942 8.68342 14.8108 8.61183 14.7466 8.52434C14.7176 8.52992 14.6885 8.53606 14.6595 8.53606V8.53661ZM16.9538 8.79774L16.9483 8.72241C17.1043 8.67314 17.2393 8.57294 17.3316 8.43786C17.3779 8.44957 17.413 8.46129 17.4594 8.46129H17.5057C17.5637 8.61808 17.6569 8.74027 17.8019 8.83289L17.7729 8.90264C17.5057 8.85632 17.2328 8.82117 16.9538 8.7983V8.79774ZM17.4476 8.53661C17.4201 8.536 17.3928 8.53206 17.3662 8.5249C17.302 8.61194 17.215 8.68168 17.1162 8.73413C17.2903 8.75143 17.4649 8.76872 17.6329 8.7983C17.5584 8.72875 17.4973 8.6461 17.4527 8.55447L17.4476 8.53661ZM19.0624 9.10573L19.0278 9.17548C18.7895 9.10573 18.5457 9.0477 18.2957 8.99526V8.91993C18.4988 8.8792 18.6791 8.73971 18.7605 8.54833L18.8358 8.56563C18.8246 8.66749 18.8394 8.77054 18.8791 8.86505C18.9187 8.95956 18.9818 9.0424 19.0624 9.10573ZM18.9056 9.05942C18.8241 8.96066 18.7722 8.83847 18.7605 8.7107C18.6852 8.81504 18.5747 8.8965 18.4587 8.94895L18.9061 9.05942H18.9056ZM19.0216 7.72925C18.8414 7.68294 18.6556 7.78728 18.6093 7.96136C18.563 8.13544 18.6735 8.31566 18.8531 8.35639C19.0334 8.4027 19.2192 8.29837 19.2655 8.12428C19.3118 7.9502 19.2013 7.76998 19.0216 7.72925ZM19.0334 7.6768C19.2426 7.72925 19.3704 7.93235 19.3179 8.13544C19.2655 8.33854 19.0507 8.46073 18.8414 8.40828C18.7924 8.39719 18.7461 8.37647 18.7052 8.34733C18.6643 8.31818 18.6296 8.2812 18.6032 8.23852C18.5767 8.19584 18.5589 8.14832 18.551 8.09873C18.5431 8.04914 18.545 7.99846 18.5569 7.94964C18.6093 7.74655 18.8241 7.62435 19.0334 7.6768ZM19.3296 7.09039C19.2253 7.09039 19.1438 7.17185 19.1438 7.27061C19.1438 7.36937 19.2309 7.45083 19.3296 7.45083C19.434 7.45083 19.5154 7.36937 19.5154 7.27061C19.5157 7.2464 19.511 7.22239 19.5017 7.20004C19.4924 7.1777 19.4786 7.15748 19.4612 7.14063C19.4438 7.12377 19.4232 7.11062 19.4006 7.10198C19.378 7.09335 19.3538 7.0894 19.3296 7.09039ZM19.3296 7.03794C19.463 7.03794 19.5735 7.14228 19.5735 7.27005C19.5735 7.39782 19.463 7.50216 19.3296 7.50216C19.1963 7.50216 19.0858 7.39782 19.0858 7.27005C19.0858 7.14228 19.1963 7.03794 19.3296 7.03794ZM19.1728 6.43981C19.0685 6.43981 18.987 6.52127 18.987 6.62003C18.987 6.71879 19.0741 6.80025 19.1728 6.80025C19.2772 6.80025 19.3586 6.71879 19.3586 6.62003C19.3586 6.52127 19.2772 6.43981 19.1728 6.43981ZM19.1728 6.38736C19.3062 6.38736 19.4167 6.4917 19.4167 6.61947C19.4167 6.74724 19.3062 6.85158 19.1728 6.85158C19.0395 6.85158 18.929 6.74724 18.929 6.61947C18.929 6.4917 19.0395 6.38736 19.1728 6.38736ZM21.4962 8.14716C21.3918 8.14716 21.3104 8.22862 21.3104 8.32738C21.3104 8.42614 21.3918 8.5076 21.4962 8.5076C21.6005 8.5076 21.682 8.42614 21.682 8.32738C21.682 8.22862 21.6005 8.14716 21.4962 8.14716ZM21.4962 8.09471C21.6295 8.09471 21.74 8.19905 21.74 8.32682C21.74 8.45459 21.6295 8.55893 21.4962 8.55893C21.3628 8.55893 21.2524 8.45459 21.2524 8.32682C21.2524 8.19905 21.3628 8.09471 21.4962 8.09471ZM21.3394 7.50216C21.2351 7.50216 21.1536 7.58362 21.1536 7.68238C21.1536 7.78114 21.2351 7.8626 21.3394 7.8626C21.4437 7.8626 21.5252 7.78114 21.5252 7.68238C21.5252 7.58362 21.4437 7.50216 21.3394 7.50216ZM21.3394 7.44971C21.4728 7.44971 21.5832 7.55405 21.5832 7.68182C21.5832 7.8096 21.4728 7.91393 21.3394 7.91393C21.206 7.91393 21.0956 7.8096 21.0956 7.68182C21.1012 7.55405 21.206 7.44971 21.3394 7.44971ZM21.0604 6.93304C20.9561 6.93304 20.8746 7.01451 20.8746 7.11326C20.8746 7.21202 20.9617 7.29348 21.0604 7.29348C21.1648 7.29348 21.2462 7.21202 21.2462 7.11326C21.2462 7.01451 21.1648 6.93304 21.0604 6.93304ZM21.0604 6.8806C21.1938 6.8806 21.3042 6.98493 21.3042 7.11271C21.3042 7.24048 21.1938 7.34482 21.0604 7.34482C20.9271 7.34482 20.8166 7.24048 20.8166 7.11271C20.8166 6.98493 20.9271 6.8806 21.0604 6.8806ZM20.6129 6.42753C20.5086 6.42753 20.4271 6.509 20.4271 6.60775C20.4271 6.70651 20.5086 6.78797 20.6129 6.78797C20.7173 6.78797 20.7987 6.70651 20.7987 6.60775C20.7987 6.509 20.7173 6.42753 20.6129 6.42753ZM20.6129 6.37509C20.7463 6.37509 20.8568 6.47942 20.8568 6.6072C20.8568 6.73497 20.7524 6.84042 20.6129 6.84042C20.4796 6.84042 20.3691 6.73608 20.3691 6.60831C20.3747 6.48054 20.4796 6.3762 20.6129 6.3762V6.37509ZM20.0667 6.04422C19.9624 6.04422 19.8809 6.12568 19.8809 6.22444C19.8809 6.3232 19.9624 6.40466 20.0667 6.40466C20.171 6.40466 20.2525 6.3232 20.2525 6.22444C20.2525 6.12568 20.171 6.04422 20.0667 6.04422ZM20.0667 5.99177C20.2001 5.99177 20.3105 6.09611 20.3105 6.22388C20.3105 6.35165 20.2001 6.45599 20.0667 6.45599C19.9333 6.45599 19.8229 6.35165 19.8229 6.22388C19.8229 6.09611 19.9333 5.99177 20.0667 5.99177ZM19.4741 5.81769C19.3698 5.81769 19.2883 5.89915 19.2883 5.99791C19.2883 6.09666 19.3698 6.17813 19.4741 6.17813C19.5785 6.17813 19.6599 6.09666 19.6599 5.99791C19.6655 5.89915 19.5785 5.81769 19.4741 5.81769ZM19.4741 5.76524C19.6075 5.76524 19.718 5.86958 19.718 5.99735C19.718 6.12512 19.6075 6.22946 19.4741 6.22946C19.3408 6.22946 19.2303 6.12512 19.2303 5.99735C19.2359 5.86958 19.3408 5.76524 19.4741 5.76524ZM18.876 5.86958C18.7717 5.86958 18.6902 5.95104 18.6902 6.0498C18.6902 6.14855 18.7717 6.23002 18.876 6.23002C18.9804 6.23002 19.0618 6.14855 19.0618 6.0498C19.0618 5.95104 18.9804 5.86958 18.876 5.86958ZM18.876 5.81713C19.0094 5.81713 19.1198 5.92147 19.1198 6.04924C19.1198 6.17701 19.0099 6.28246 18.876 6.28246C18.7421 6.28246 18.6322 6.17813 18.6322 6.05035C18.6322 5.92258 18.7427 5.81824 18.876 5.81824V5.81713ZM18.4347 5.37578C18.3303 5.37578 18.2489 5.45724 18.2489 5.556C18.2489 5.65476 18.3303 5.73622 18.4347 5.73622C18.539 5.73622 18.6205 5.65476 18.6205 5.556C18.626 5.45724 18.539 5.37578 18.4347 5.37578ZM18.4347 5.32947C18.568 5.32947 18.6785 5.43381 18.6785 5.56158C18.6785 5.68936 18.568 5.79369 18.4347 5.79369C18.3013 5.79369 18.1908 5.68936 18.1908 5.56158C18.1964 5.43381 18.3013 5.32947 18.4347 5.32947ZM17.8594 5.00976C17.7551 5.00976 17.6736 5.09122 17.6736 5.18998C17.6736 5.28874 17.7551 5.3702 17.8594 5.3702C17.9638 5.3702 18.0452 5.28874 18.0452 5.18998C18.0452 5.09122 17.9638 5.00976 17.8594 5.00976ZM17.8594 4.95731C17.9928 4.95731 18.1032 5.06165 18.1032 5.18943C18.1032 5.3172 17.9928 5.42154 17.8594 5.42154C17.7261 5.42154 17.6156 5.3172 17.6156 5.18943C17.6212 5.06165 17.7261 4.95731 17.8594 4.95731ZM17.2613 4.79495C17.1569 4.79495 17.0755 4.87641 17.0755 4.97517C17.0755 5.07393 17.1569 5.15539 17.2613 5.15539C17.3656 5.15539 17.4471 5.07393 17.4471 4.97517C17.4527 4.87641 17.3656 4.79495 17.2613 4.79495ZM17.2613 4.7425C17.3946 4.7425 17.5051 4.84684 17.5051 4.97461C17.5051 5.10238 17.3946 5.20672 17.2613 5.20672C17.1279 5.20672 17.0175 5.10238 17.0175 4.97461C17.023 4.84684 17.1279 4.7425 17.2613 4.7425ZM16.6514 4.69005C16.5471 4.69005 16.4656 4.77151 16.4656 4.87027C16.4656 4.96903 16.5471 5.05049 16.6514 5.05049C16.7558 5.05049 16.8372 4.96903 16.8372 4.87027C16.8372 4.77151 16.7558 4.69005 16.6514 4.69005ZM16.6514 4.6376C16.7848 4.6376 16.8953 4.74194 16.8953 4.86972C16.8953 4.99749 16.7848 5.10183 16.6514 5.10183C16.6205 5.10234 16.5898 5.09674 16.5611 5.08533C16.5323 5.07392 16.5061 5.05694 16.484 5.03537C16.4618 5.01379 16.4442 4.98805 16.432 4.95962C16.4199 4.93119 16.4135 4.90063 16.4132 4.86972C16.4076 4.74194 16.5175 4.6376 16.6514 4.6376ZM10.8492 9.45836C11.0116 9.37132 11.0702 9.1738 10.9826 9.01702C10.9374 8.94063 10.8645 8.88467 10.779 8.86086C10.6935 8.83704 10.6021 8.84721 10.5239 8.88924C10.3616 8.97629 10.303 9.1738 10.3906 9.33059C10.4782 9.48737 10.6869 9.5454 10.8492 9.45836ZM10.8727 9.50467C10.6807 9.60343 10.4486 9.53926 10.3443 9.35346C10.3196 9.30994 10.304 9.26183 10.2986 9.21207C10.2931 9.16232 10.2979 9.11198 10.3125 9.06413C10.3272 9.01628 10.3515 8.97194 10.3839 8.9338C10.4163 8.89567 10.4562 8.86456 10.5011 8.84238C10.693 8.74362 10.9307 8.80778 11.0295 8.99358C11.0541 9.03713 11.0696 9.08524 11.075 9.13497C11.0804 9.1847 11.0756 9.23501 11.061 9.28284C11.0463 9.33067 11.022 9.375 10.9896 9.41314C10.9573 9.45128 10.9175 9.48242 10.8727 9.50467ZM13.254 8.35472C13.4343 8.30841 13.5442 8.13377 13.4979 7.95969C13.4515 7.7856 13.2657 7.68071 13.0855 7.72758C12.9053 7.77444 12.7954 7.94853 12.8417 8.12261C12.8669 8.20722 12.924 8.27873 13.0009 8.32204C13.0779 8.36535 13.1686 8.37706 13.254 8.35472ZM13.2713 8.40717C13.172 8.43324 13.0664 8.41925 12.9773 8.36822C12.8881 8.31719 12.8226 8.23319 12.7948 8.13433C12.7823 8.08549 12.7798 8.03461 12.7874 7.98477C12.795 7.93493 12.8127 7.88715 12.8393 7.8443C12.8659 7.80145 12.9008 7.76443 12.9421 7.73545C12.9834 7.70647 13.0301 7.68614 13.0794 7.67569C13.2886 7.62324 13.5034 7.74543 13.5559 7.94853C13.6083 8.15162 13.4806 8.35528 13.2713 8.40717ZM16.0533 8.01381C16.2391 8.01381 16.3903 7.86874 16.3903 7.68852C16.3896 7.64502 16.3803 7.60209 16.363 7.56219C16.3456 7.52228 16.3206 7.48619 16.2893 7.45598C16.258 7.42576 16.221 7.40202 16.1805 7.3861C16.14 7.37019 16.0968 7.36242 16.0533 7.36323C16.0098 7.36242 15.9666 7.37019 15.9261 7.3861C15.8856 7.40202 15.8486 7.42576 15.8173 7.45598C15.786 7.48619 15.761 7.52228 15.7437 7.56219C15.7263 7.60209 15.717 7.64502 15.7163 7.68852C15.7163 7.86874 15.8675 8.01381 16.0533 8.01381ZM16.0533 8.06626C16.003 8.06699 15.953 8.05781 15.9062 8.03922C15.8594 8.02064 15.8167 7.99302 15.7806 7.95794C15.7445 7.92287 15.7157 7.88102 15.6957 7.83479C15.6758 7.78856 15.6651 7.73886 15.6644 7.68852C15.6644 7.47928 15.8385 7.31078 16.0533 7.31078C16.2681 7.31078 16.4422 7.47928 16.4422 7.68852C16.4478 7.89775 16.2681 8.06626 16.0533 8.06626ZM12.7831 7.45083C12.8875 7.45083 12.9689 7.36937 12.9689 7.27061C12.9689 7.17185 12.8875 7.09039 12.7831 7.09039C12.6788 7.09039 12.5973 7.17185 12.5973 7.27061C12.5917 7.36937 12.6788 7.45083 12.7831 7.45083ZM12.7831 7.50328C12.7522 7.50379 12.7215 7.49819 12.6927 7.48678C12.664 7.47538 12.6378 7.4584 12.6157 7.43682C12.5935 7.41524 12.5759 7.3895 12.5637 7.36107C12.5516 7.33264 12.5452 7.30208 12.5449 7.27117C12.5449 7.14339 12.6553 7.03906 12.7831 7.03906C12.9165 7.03906 13.0269 7.14339 13.0269 7.27117C13.0214 7.39894 12.9165 7.50328 12.7831 7.50328ZM12.9399 6.80025C13.0442 6.80025 13.1257 6.71879 13.1257 6.62003C13.1257 6.52127 13.0442 6.43981 12.9399 6.43981C12.8356 6.43981 12.7541 6.52127 12.7541 6.62003C12.7485 6.71879 12.8356 6.80025 12.9399 6.80025ZM12.9399 6.8527C12.8065 6.8527 12.6961 6.74836 12.6961 6.62059C12.6961 6.49281 12.8065 6.38848 12.9399 6.38848C13.0733 6.38848 13.1837 6.49281 13.1837 6.62059C13.1781 6.74836 13.0677 6.8527 12.9399 6.8527ZM10.611 8.51318C10.7153 8.51318 10.7968 8.43172 10.7968 8.33296C10.7968 8.2342 10.7153 8.15274 10.611 8.15274C10.5066 8.15274 10.4252 8.2342 10.4252 8.33296C10.4252 8.43172 10.5066 8.51318 10.611 8.51318ZM10.611 8.56563C10.4776 8.56563 10.3672 8.46129 10.3672 8.33352C10.3672 8.20575 10.4776 8.10141 10.611 8.10141C10.6419 8.10089 10.6726 8.1065 10.7013 8.1179C10.7301 8.12931 10.7563 8.14629 10.7784 8.16786C10.8006 8.18944 10.8182 8.21518 10.8304 8.24362C10.8425 8.27205 10.8489 8.3026 10.8492 8.33352C10.8548 8.46129 10.7449 8.56563 10.611 8.56563ZM10.7678 7.8626C10.8721 7.8626 10.9536 7.78114 10.9536 7.68238C10.9521 7.63408 10.9319 7.58824 10.8972 7.55459C10.8625 7.52095 10.8161 7.50214 10.7678 7.50216C10.6634 7.50216 10.582 7.58362 10.582 7.68238C10.582 7.78114 10.6634 7.8626 10.7678 7.8626ZM10.7678 7.91505C10.6344 7.91505 10.5239 7.81071 10.5239 7.68294C10.5239 7.55517 10.6344 7.45083 10.7678 7.45083C10.9011 7.45083 11.0116 7.55517 11.0116 7.68294C11.0116 7.81071 10.9011 7.91505 10.7678 7.91505ZM11.0467 7.29348C11.1511 7.29348 11.2325 7.21202 11.2325 7.11326C11.2325 7.01451 11.1511 6.93304 11.0467 6.93304C10.9424 6.93304 10.8609 7.01451 10.8609 7.11326C10.8609 7.21202 10.948 7.29348 11.0467 7.29348ZM11.0467 7.34593C10.9134 7.34593 10.8029 7.24159 10.8029 7.11382C10.8029 6.98605 10.9134 6.88171 11.0467 6.88171C11.1801 6.88171 11.2906 6.98605 11.2906 7.11382C11.2906 7.24159 11.1801 7.34593 11.0467 7.34593ZM11.4942 6.78853C11.5986 6.78853 11.68 6.70707 11.68 6.60831C11.68 6.50955 11.5986 6.42809 11.4942 6.42809C11.3899 6.42809 11.3084 6.50955 11.3084 6.60831C11.3084 6.70707 11.3899 6.78853 11.4942 6.78853ZM11.4942 6.84098C11.3609 6.84098 11.2504 6.73664 11.2504 6.60887C11.2504 6.4811 11.3609 6.37676 11.4942 6.37676C11.6276 6.37676 11.7381 6.4811 11.7381 6.60887C11.7381 6.73664 11.6276 6.84042 11.4937 6.84042L11.4942 6.84098ZM12.0405 6.40522C12.1448 6.40522 12.2263 6.32375 12.2263 6.22499C12.2263 6.12624 12.1448 6.04477 12.0405 6.04477C11.9361 6.04477 11.8547 6.12624 11.8547 6.22499C11.8547 6.32375 11.9417 6.40522 12.0405 6.40522ZM12.0405 6.45766C11.9071 6.45766 11.7966 6.35333 11.7966 6.22555C11.7966 6.09778 11.9071 5.99344 12.0405 5.99344C12.1738 5.99344 12.2843 6.09778 12.2843 6.22555C12.2843 6.35333 12.1738 6.45766 12.0405 6.45766ZM12.633 6.18482C12.7374 6.18482 12.8188 6.10336 12.8188 6.0046C12.8188 5.90584 12.7374 5.82438 12.633 5.82438C12.5287 5.82438 12.4472 5.90584 12.4472 6.0046C12.4472 6.10336 12.5287 6.18482 12.633 6.18482ZM12.633 6.23727C12.4997 6.23727 12.3892 6.13293 12.3892 6.00516C12.3892 5.87739 12.4997 5.77305 12.633 5.77305C12.7664 5.77305 12.8769 5.87739 12.8769 6.00516C12.8713 6.13293 12.7664 6.23727 12.633 6.23727ZM13.2312 6.23169C13.3355 6.23169 13.417 6.15023 13.417 6.05147C13.417 5.95271 13.3355 5.87125 13.2312 5.87125C13.1268 5.87125 13.0454 5.95271 13.0454 6.05147C13.0454 6.15023 13.1268 6.23169 13.2312 6.23169ZM13.2312 6.28414C13.0978 6.28414 12.9873 6.1798 12.9873 6.05203C12.9873 5.92426 13.0978 5.81992 13.2312 5.81992C13.3645 5.81992 13.475 5.92426 13.475 6.05203C13.475 6.1798 13.3639 6.28246 13.2306 6.28246L13.2312 6.28414ZM13.6725 5.74404C13.7768 5.74404 13.8583 5.66257 13.8583 5.56381C13.8583 5.46506 13.7768 5.38359 13.6725 5.38359C13.5682 5.38359 13.4867 5.46506 13.4867 5.56381C13.4867 5.66257 13.5682 5.74404 13.6725 5.74404ZM13.6725 5.79648C13.5391 5.79648 13.4287 5.69215 13.4287 5.56437C13.4287 5.4366 13.5391 5.33226 13.6725 5.33226C13.8059 5.33226 13.9163 5.4366 13.9163 5.56437C13.9163 5.69215 13.8059 5.79648 13.6725 5.79648ZM14.2478 5.37244C14.3521 5.37244 14.4336 5.29097 14.4336 5.19221C14.4336 5.09346 14.3521 5.01199 14.2478 5.01199C14.1434 5.01199 14.062 5.09346 14.062 5.19221C14.062 5.29097 14.1434 5.37244 14.2478 5.37244ZM14.2478 5.42488C14.1144 5.42488 14.0039 5.32055 14.0039 5.19277C14.0039 5.065 14.1144 4.96066 14.2478 4.96066C14.3811 4.96066 14.4916 5.065 14.4916 5.19277C14.4916 5.32055 14.3811 5.42488 14.2478 5.42488ZM14.8459 5.15762C14.9502 5.15762 15.0317 5.07616 15.0317 4.9774C15.0317 4.87864 14.9502 4.79718 14.8459 4.79718C14.7415 4.79718 14.6601 4.87864 14.6601 4.9774C14.6601 5.07616 14.7415 5.15762 14.8459 5.15762ZM14.8459 5.21007C14.7125 5.21007 14.6021 5.10573 14.6021 4.97796C14.6021 4.85019 14.7125 4.74585 14.8459 4.74585C14.9792 4.74585 15.0897 4.85019 15.0897 4.97796C15.0897 5.10573 14.9792 5.21007 14.8459 5.21007ZM16.0533 6.93304C16.1576 6.93304 16.2391 6.85158 16.2391 6.75282C16.2391 6.65406 16.1576 6.5726 16.0533 6.5726C15.949 6.5726 15.8675 6.65406 15.8675 6.75282C15.8675 6.85158 15.949 6.93304 16.0533 6.93304ZM16.0533 6.98549C15.92 6.98549 15.8095 6.88115 15.8095 6.75338C15.8095 6.62561 15.92 6.52127 16.0533 6.52127C16.1867 6.52127 16.2971 6.62561 16.2971 6.75338C16.2971 6.88115 16.1867 6.98549 16.0533 6.98549ZM16.0533 6.27689C16.1576 6.27689 16.2391 6.19542 16.2391 6.09666C16.2391 5.99791 16.1576 5.91644 16.0533 5.91644C15.949 5.91644 15.8675 5.99791 15.8675 6.09666C15.8675 6.19542 15.949 6.27689 16.0533 6.27689ZM16.0533 6.32933C15.92 6.32933 15.8095 6.225 15.8095 6.09722C15.8095 5.96945 15.92 5.86511 16.0533 5.86511C16.1867 5.86511 16.2971 5.96945 16.2971 6.09722C16.2971 6.225 16.1867 6.32933 16.0533 6.32933ZM16.0533 5.62073C16.1576 5.62073 16.2391 5.53926 16.2391 5.44051C16.2391 5.34175 16.1576 5.26029 16.0533 5.26029C15.949 5.26029 15.8675 5.34175 15.8675 5.44051C15.8675 5.53926 15.949 5.62073 16.0533 5.62073ZM16.0533 5.66704C15.92 5.66704 15.8095 5.5627 15.8095 5.43493C15.8095 5.30715 15.92 5.20282 16.0533 5.20282C16.1867 5.20282 16.2971 5.30715 16.2971 5.43493C16.2971 5.56828 16.1867 5.66704 16.0533 5.66704ZM15.4608 5.05161C15.5651 5.05161 15.6466 4.97015 15.6466 4.87139C15.6451 4.82309 15.6249 4.77725 15.5902 4.7436C15.5555 4.70995 15.5091 4.69115 15.4608 4.69117C15.3564 4.69117 15.2688 4.77263 15.2688 4.87139C15.2688 4.97573 15.3559 5.05161 15.4608 5.05161ZM15.4608 5.10964C15.3274 5.10964 15.2169 5.0053 15.2169 4.87753C15.2169 4.74975 15.3274 4.64542 15.4608 4.64542C15.5941 4.64542 15.7046 4.74975 15.7046 4.87753C15.699 5.0053 15.5941 5.10964 15.4608 5.10964ZM21.5827 8.89036C21.5044 8.84875 21.4132 8.83881 21.3278 8.86259C21.2424 8.88637 21.1695 8.94206 21.124 9.01813C21.037 9.17492 21.095 9.37244 21.2574 9.45948C21.3357 9.50095 21.4268 9.51081 21.5122 9.48704C21.5975 9.46327 21.6705 9.40767 21.716 9.3317C21.7382 9.29443 21.7523 9.25294 21.7576 9.2099C21.7629 9.16685 21.7591 9.12318 21.7465 9.08166C21.734 9.04015 21.713 9.0017 21.6847 8.96877C21.6565 8.93583 21.6218 8.90913 21.5827 8.89036ZM21.6117 8.84405C21.8036 8.94281 21.8672 9.17492 21.7629 9.35514C21.7106 9.44455 21.6258 9.51024 21.5261 9.53843C21.4264 9.56662 21.3197 9.55512 21.2284 9.50635C21.1838 9.48384 21.1443 9.45246 21.1123 9.41413C21.0803 9.3758 21.0565 9.33133 21.0424 9.28346C21.0282 9.23559 21.024 9.18532 21.03 9.13576C21.036 9.0862 21.052 9.03838 21.0772 8.99526C21.1294 8.90585 21.2143 8.84015 21.314 8.81196C21.4136 8.78377 21.5203 8.79527 21.6117 8.84405ZM11.3252 8.97182C11.2727 8.84405 11.2091 8.74529 11.0696 8.70456C11.1628 7.58362 11.4585 7.07253 12.5103 6.56144C12.6035 6.59604 12.5973 6.60775 12.5973 6.61947C12.5973 6.77068 12.6844 6.846 12.7948 6.92746C12.609 6.96819 12.4405 7.04966 12.4405 7.27005C12.4405 7.45027 12.5683 7.54903 12.7307 7.59534C12.6782 7.6941 12.6665 7.73483 12.6782 7.85088C12.4634 7.94964 12.4171 8.08299 12.469 8.29223C12.5504 8.5885 12.7362 8.6231 13.0325 8.54777C13.0485 8.64001 13.0326 8.73493 12.9874 8.81693C12.9423 8.89892 12.8706 8.96312 12.7841 8.99895C12.6976 9.03479 12.6015 9.04014 12.5116 9.01411C12.4217 8.98809 12.3433 8.93225 12.2893 8.85577C12.2893 8.82675 12.2837 8.80332 12.2776 8.7743C12.2313 8.6058 12.0455 8.50146 11.8591 8.54219C11.6789 8.5885 11.5629 8.76872 11.6092 8.94281C11.6265 9.00084 11.6555 9.04715 11.6962 9.08788C11.7135 9.25638 11.6382 9.40759 11.487 9.48849C11.3302 9.56995 11.208 9.5348 11.0573 9.48291C11.3073 9.36686 11.4351 9.25638 11.3246 8.97182H11.3252ZM11.3425 7.75771C11.2381 8.00767 11.1857 8.29781 11.1505 8.65211C11.2727 8.70456 11.3536 8.82619 11.4005 8.94839C11.4758 9.13419 11.4758 9.32613 11.2671 9.47119C11.3301 9.47804 11.3935 9.46371 11.4474 9.43046C11.5634 9.3663 11.6276 9.25024 11.6214 9.12861C11.5813 9.08121 11.5517 9.02588 11.5344 8.96624C11.4764 8.74529 11.6159 8.5249 11.8363 8.47245C11.9432 8.44523 12.0564 8.46018 12.1526 8.51419C12.2488 8.5682 12.3205 8.65714 12.3529 8.76259C12.3585 8.78602 12.3646 8.8089 12.3646 8.83233C12.5566 9.05886 12.9399 8.94281 12.9572 8.64653C12.6029 8.71628 12.4517 8.54219 12.3937 8.30953C12.3412 8.11759 12.3646 7.92063 12.5912 7.80402C12.5891 7.74892 12.5971 7.69392 12.6146 7.64165C12.5528 7.61606 12.4982 7.57564 12.4557 7.52398C12.4132 7.47231 12.384 7.41097 12.3708 7.34537C12.1677 7.38611 11.9412 7.44413 11.7554 7.51946C11.5751 7.58362 11.4418 7.67624 11.343 7.75771H11.3425ZM12.5159 6.64291C11.9294 6.93918 11.5863 7.24104 11.3832 7.6595C11.4903 7.58171 11.6076 7.51918 11.7319 7.4737C11.9239 7.39838 12.156 7.34035 12.3591 7.29962V7.27005C12.3591 7.10155 12.4695 6.95034 12.6202 6.89231C12.5579 6.82333 12.5211 6.73513 12.5159 6.64235V6.64291ZM20.6185 9.49463C20.5473 9.45679 20.4892 9.39826 20.4518 9.32675C20.4145 9.25525 20.3996 9.17411 20.4093 9.09401C20.45 9.05328 20.479 9.00697 20.4963 8.94895C20.5067 8.90663 20.5087 8.86267 20.502 8.8196C20.4954 8.77654 20.4803 8.7352 20.4576 8.69798C20.435 8.66075 20.4052 8.62837 20.37 8.60269C20.3348 8.57701 20.2949 8.55854 20.2525 8.54833C20.2027 8.53523 20.1507 8.5335 20.1002 8.54328C20.0497 8.55305 20.002 8.57407 19.9607 8.60479C19.9195 8.6355 19.8856 8.67511 19.8618 8.72069C19.8379 8.76626 19.8246 8.81663 19.8229 8.86804C19.5617 9.19891 19.0328 9.02483 19.0797 8.56005C19.3759 8.62979 19.5617 8.60078 19.6432 8.3045C19.7012 8.09527 19.6488 7.96192 19.4401 7.86316C19.4529 7.77447 19.4344 7.6841 19.3877 7.60761C19.55 7.5613 19.6778 7.46255 19.6778 7.28233C19.6778 7.06137 19.5093 6.98047 19.3235 6.94532C19.434 6.85828 19.5266 6.78853 19.5266 6.63733C19.5266 6.62561 19.5266 6.60831 19.521 6.5966L19.5963 6.57316C20.642 7.07867 20.9611 7.60706 21.0543 8.71628C20.9092 8.75701 20.845 8.85577 20.7987 8.98354C20.6883 9.2681 20.816 9.37857 21.066 9.50021C20.8975 9.54094 20.7759 9.57553 20.6185 9.49463ZM19.7414 7.34537C19.7124 7.47873 19.6192 7.5892 19.4914 7.64165C19.5114 7.69332 19.5194 7.74882 19.5149 7.80402C19.747 7.92007 19.7648 8.11759 19.7124 8.30953C19.6482 8.54164 19.5032 8.71628 19.1489 8.64653C19.1662 8.94281 19.5495 9.05886 19.7414 8.83233C19.7414 8.8089 19.747 8.78602 19.7531 8.76259C19.8112 8.54777 20.0433 8.41386 20.2642 8.47245C20.4907 8.53048 20.6241 8.75143 20.5661 8.96624C20.5488 9.02427 20.5198 9.0823 20.479 9.12303C20.477 9.16957 20.4849 9.21601 20.5021 9.25928C20.5194 9.30256 20.5456 9.34168 20.5791 9.37406C20.6126 9.40644 20.6525 9.43135 20.6964 9.44713C20.7402 9.46291 20.7869 9.46921 20.8333 9.46561C20.6241 9.32612 20.6241 9.13475 20.7 8.94281C20.7463 8.82061 20.8222 8.69898 20.9499 8.64653C20.9209 8.29223 20.8629 8.00209 20.758 7.75213C20.6349 7.6502 20.4955 7.56966 20.3457 7.51388C20.1716 7.44971 19.9389 7.39169 19.7414 7.34537ZM19.5902 6.63119C19.5846 6.72995 19.5439 6.82313 19.4797 6.88673C19.5578 6.91446 19.6254 6.96564 19.6732 7.03326C19.721 7.10088 19.7468 7.18164 19.747 7.26447V7.29348C19.9562 7.33979 20.1766 7.39224 20.3741 7.46757C20.5136 7.52002 20.6297 7.58362 20.7229 7.65337C20.5198 7.24104 20.1766 6.93918 19.5902 6.63119ZM18.3705 10.1279L17.778 9.7273L18.4983 9.65197L19.0908 10.0526L18.3705 10.1279ZM17.2551 9.8958C17.2242 9.89632 17.1935 9.89071 17.1648 9.8793C17.136 9.8679 17.1098 9.85092 17.0877 9.82934C17.0656 9.80777 17.0479 9.78202 17.0357 9.75359C17.0236 9.72516 17.0172 9.69461 17.0169 9.66369C17.0169 9.53592 17.1274 9.43158 17.2551 9.43158C17.3885 9.43158 17.499 9.53592 17.499 9.66369C17.499 9.79146 17.3885 9.8958 17.2551 9.8958ZM17.2551 9.84335C17.3595 9.84335 17.4409 9.76189 17.4409 9.66313C17.4409 9.56437 17.3595 9.48291 17.2551 9.48291C17.1508 9.48291 17.0693 9.56437 17.0693 9.66313C17.0693 9.76189 17.1564 9.84335 17.2551 9.84335ZM12.527 10.4476C12.6313 10.4476 12.7128 10.3662 12.7128 10.2674C12.7128 10.1686 12.6313 10.0872 12.527 10.0872C12.4227 10.0872 12.3412 10.1686 12.3412 10.2674C12.3412 10.3662 12.4227 10.4476 12.527 10.4476ZM12.527 10.5001C12.3937 10.5001 12.2832 10.3957 12.2832 10.268C12.2832 10.1402 12.3937 10.0358 12.527 10.0358C12.6604 10.0358 12.7708 10.1402 12.7708 10.268C12.7653 10.3957 12.6604 10.5001 12.527 10.5001ZM14.8503 9.84391C14.9547 9.84391 15.0361 9.76245 15.0361 9.66369C15.0347 9.61539 15.0145 9.56955 14.9798 9.5359C14.9451 9.50225 14.8987 9.48345 14.8503 9.48347C14.746 9.48347 14.6645 9.56493 14.6645 9.66369C14.659 9.76245 14.746 9.84391 14.8503 9.84391ZM14.8503 9.89636C14.717 9.89636 14.6065 9.79202 14.6065 9.66425C14.6065 9.53648 14.717 9.43214 14.8503 9.43214C14.9837 9.43214 15.0942 9.53648 15.0942 9.66425C15.0886 9.79202 14.9837 9.89636 14.8503 9.89636ZM19.5785 10.4482C19.6828 10.4482 19.7643 10.3667 19.7643 10.268C19.7643 10.1692 19.6828 10.0877 19.5785 10.0877C19.4741 10.0877 19.3927 10.1692 19.3927 10.268C19.3927 10.3667 19.4741 10.4482 19.5785 10.4482ZM19.5785 10.5006C19.4451 10.5006 19.3347 10.3963 19.3347 10.2685C19.3347 10.1407 19.4451 10.0364 19.5785 10.0364C19.7118 10.0364 19.8223 10.1407 19.8223 10.2685C19.8223 10.3963 19.7118 10.5006 19.5785 10.5006ZM13.7355 10.129L13.0152 10.0537L13.6078 9.65309L14.3281 9.72841L13.7355 10.129ZM16.657 9.60064L16.0533 9.38415L15.4552 9.59897L16.0533 9.81434L16.657 9.60064ZM16.8082 9.60064L16.0533 9.87237L15.2984 9.59952L16.0533 9.32612L16.8082 9.60064Z" fill="#004996"/>
</svg>
