<svg width="32" height="32" viewBox="0 0 32 32" fill="none" xmlns="http://www.w3.org/2000/svg">
<circle cx="16" cy="16" r="16" fill="#000105"/>
<path fill-rule="evenodd" clip-rule="evenodd" d="M4.58667 15.9464C4.58667 9.67884 9.67908 4.58643 15.9467 4.58643C22.2143 4.58643 27.3067 9.67884 27.3067 15.9464C27.3067 22.214 22.2143 27.3064 15.9467 27.3064C9.67908 27.3064 4.58667 22.214 4.58667 15.9464Z" fill="#F9D438"/>
<path fill-rule="evenodd" clip-rule="evenodd" d="M5.13504 15.9464C5.13504 9.99215 9.99242 5.13477 15.9466 5.13477C21.9008 5.13477 26.7582 9.99215 26.7582 15.9464C26.7582 21.9006 21.9008 26.7579 15.9466 26.7579C9.99242 26.7579 5.13504 21.9006 5.13504 15.9464Z" fill="#000105"/>
<path fill-rule="evenodd" clip-rule="evenodd" d="M5.76181 15.9467C5.76181 10.3058 10.345 5.72266 15.9858 5.72266C21.6266 5.72266 26.2098 10.3058 26.2098 15.9467C26.2098 21.5875 21.6266 26.1707 15.9858 26.1707C10.3058 26.1315 5.76181 21.5875 5.76181 15.9467Z" fill="#F9D438"/>
<path fill-rule="evenodd" clip-rule="evenodd" d="M17.631 24.6426C16.8868 24.6426 16.3383 24.055 16.3383 23.4282C16.3383 23.3499 16.3383 23.2715 16.3383 23.2324H17.0434C17.2393 23.2324 17.2001 23.5066 17.2001 23.5066C17.2001 23.7024 17.4352 23.82 17.5919 23.82C17.7877 23.82 17.9836 23.6241 17.9836 23.4282V22.9973C17.8661 23.0757 17.5919 23.0757 17.5919 23.0757C16.9651 23.0757 16.2992 22.4881 16.2992 21.8222V21.5088C16.2992 20.8037 16.8868 20.2944 17.5919 20.2944H17.631C18.3361 20.2944 18.8454 20.8429 18.8454 21.548V23.4282C18.8454 24.0942 18.3361 24.6426 17.631 24.6426Z" fill="#000105"/>
<path fill-rule="evenodd" clip-rule="evenodd" d="M17.5919 21.1562C17.8269 21.1562 17.9836 21.3129 17.9836 21.548V21.783C17.9836 21.9789 17.8269 22.1747 17.5919 22.1747C17.396 22.1747 17.2002 22.018 17.2002 21.783V21.548C17.2002 21.3129 17.396 21.1562 17.5919 21.1562Z" fill="#F9D438"/>
<path fill-rule="evenodd" clip-rule="evenodd" d="M8.26883 11.5981V20.0986H10.9326C13.087 20.0986 14.1839 17.474 12.6953 15.8679C13.9488 14.4577 13.4004 11.9899 11.0892 11.6373H8.26883V11.5981ZM9.83573 15.0845V13.165H11.1676C12.0294 13.165 12.1861 14.8103 11.2068 15.0845H9.83573ZM9.83573 18.61V16.6122H11.0109C11.9902 16.6122 12.3036 18.375 11.0501 18.61H9.83573Z" fill="#000105"/>
<path fill-rule="evenodd" clip-rule="evenodd" d="M19.3154 11.5981V20.0986H21.9791C24.1336 20.0986 25.2304 17.474 23.7419 15.8679C24.9954 14.4577 24.447 11.9899 22.1358 11.6373H19.3154V11.5981ZM20.8823 15.0845V13.165H22.175C23.0368 13.165 23.1935 14.8103 22.2142 15.0845H20.8823ZM20.8823 18.61V16.6122H22.0183C22.9976 16.6122 23.311 18.375 22.0575 18.61H20.8823Z" fill="#000105"/>
<path fill-rule="evenodd" clip-rule="evenodd" d="M14.3014 20.2554C15.0065 20.2554 15.5941 20.8038 15.5941 21.5089V23.3892C15.5941 24.0943 15.0457 24.6427 14.3406 24.6427H14.3014C13.5963 24.6427 13.0479 24.0943 13.0479 23.3892V21.5089C13.0479 20.8038 13.5963 20.2554 14.3014 20.2554Z" fill="#000105"/>
<path fill-rule="evenodd" clip-rule="evenodd" d="M14.3013 21.1562C14.5364 21.1562 14.6931 21.3129 14.6931 21.548V23.4282C14.6931 23.6241 14.5364 23.82 14.3013 23.82C14.1055 23.82 13.9096 23.6633 13.9096 23.4282V21.548C13.9096 21.3129 14.0663 21.1562 14.3013 21.1562Z" fill="#F9D438"/>
<path fill-rule="evenodd" clip-rule="evenodd" d="M12.5778 7.36768L15.359 15.9464H16.5734L19.3154 7.36768H17.631L15.9466 13.0869L14.3014 7.36768H12.5778Z" fill="#000105"/>
</svg>
